# Blender v3.4.1 OBJ File: 'Forest_Nature_Pack_Export.blend'
# www.blender.org
mtllib Hill_Top_B_Side_Color1.mtl
o Hill_Top_B_Side_Color1
v 0.500000 -0.426777 -1.176777
v -0.500000 -0.500000 -1.000000
v -0.500000 -0.100000 -1.176777
v 0.500000 -0.100000 -1.176777
v 0.500000 -0.250000 -1.250000
v -0.500000 -0.250000 -1.250000
v -0.500000 0.000000 -1.000000
v 0.000000 -0.705186 -1.000000
v -0.270721 -0.564343 -1.176777
v 0.270722 -0.564343 -1.176777
v 0.000000 -0.631626 -1.176777
v 0.269764 -0.638142 -1.000000
v -0.269764 -0.638142 -1.000000
v 0.271525 -0.387085 -1.250000
v -0.271525 -0.387085 -1.250000
v 0.000000 -0.250000 -1.250000
v 0.000000 -0.454566 -1.250000
v -0.500000 0.000000 0.500000
v -0.500000 -0.500000 0.500000
v -0.500000 -0.426777 -1.176777
v -1.500000 -0.500000 -1.000000
v -1.500000 0.000000 -1.000000
v -1.000000 -0.705186 -1.000000
v -1.270721 -0.564343 -1.176777
v -0.729278 -0.564343 -1.176777
v -1.000000 -0.631626 -1.176777
v -0.730236 -0.638142 -1.000000
v -1.269764 -0.638142 -1.000000
v -0.728475 -0.387085 -1.250000
v -1.271525 -0.387085 -1.250000
v -1.000000 -0.250000 -1.250000
v -1.000000 -0.454566 -1.250000
v -1.500000 0.000000 0.500000
v -1.500000 -0.500000 0.500000
v -1.500000 -0.426777 -1.176777
v -1.500000 -0.100000 -1.176777
v -1.500000 -0.250000 -1.250000
v 1.500000 0.000000 -1.000000
v 1.500000 -0.500000 0.500000
v 1.500000 -0.426777 -1.176776
v 1.500000 -0.500000 -1.000000
v 0.500000 -0.500000 -1.000000
v 1.500000 -0.100000 -1.176776
v 1.500000 -0.250000 -1.250000
v 0.500000 0.000000 -1.000000
v 1.000000 -0.705186 -1.000000
v 0.729279 -0.564343 -1.176777
v 1.270722 -0.564343 -1.176777
v 1.000000 -0.631626 -1.176777
v 1.269764 -0.638142 -1.000000
v 0.730236 -0.638142 -1.000000
v 1.271525 -0.387085 -1.250000
v 0.728476 -0.387085 -1.250000
v 1.000000 -0.250000 -1.250000
v 1.000000 -0.454566 -1.250000
v 0.500000 0.000000 0.500000
v 1.500000 0.000000 0.500000
v 0.500000 -0.500000 0.500000
v -1.500000 0.000000 1.499999
v -0.500000 0.000000 1.499999
v 0.500000 0.000000 1.499999
v 1.500000 0.000000 1.500000
vt 0.035462 0.896967
vt 0.041314 0.889522
vt 0.048269 0.896967
vt 0.055224 0.889522
vt 0.061076 0.896967
vt 0.061076 0.941795
vt 0.035462 0.941795
vt 0.035462 0.936364
vt 0.061076 0.936364
vt 0.055203 0.833020
vt 0.055179 0.829012
vt 0.061076 0.836515
vt 0.061076 0.840491
vt 0.035462 0.840491
vt 0.041335 0.833020
vt 0.035462 0.836515
vt 0.041359 0.829012
vt 0.035462 0.836515
vt 0.048269 0.885857
vt 0.048269 0.829366
vt 0.048269 0.825371
vt 0.061076 0.836515
vt 0.061076 0.910545
vt 0.035462 0.910545
vt 0.035462 0.896967
vt 0.041314 0.889522
vt 0.048269 0.896967
vt 0.055224 0.889522
vt 0.061076 0.896967
vt 0.061076 0.941795
vt 0.035462 0.941795
vt 0.035462 0.936364
vt 0.061076 0.936364
vt 0.055203 0.833020
vt 0.055179 0.829012
vt 0.061076 0.836515
vt 0.061076 0.840491
vt 0.035462 0.840491
vt 0.041335 0.833020
vt 0.035462 0.836515
vt 0.041359 0.829012
vt 0.035462 0.836515
vt 0.048269 0.885857
vt 0.048269 0.829366
vt 0.048269 0.825371
vt 0.061076 0.836515
vt 0.061076 0.910545
vt 0.035462 0.910545
vt 0.035462 0.896967
vt 0.041314 0.889522
vt 0.048269 0.896967
vt 0.055224 0.889522
vt 0.061076 0.896967
vt 0.061076 0.941795
vt 0.035462 0.941795
vt 0.035462 0.936364
vt 0.061076 0.936364
vt 0.055203 0.833020
vt 0.055179 0.829012
vt 0.061076 0.836515
vt 0.061076 0.840491
vt 0.035462 0.840491
vt 0.041335 0.833020
vt 0.035462 0.836515
vt 0.041359 0.829012
vt 0.035462 0.836515
vt 0.048269 0.885857
vt 0.048269 0.829366
vt 0.048269 0.825371
vt 0.061076 0.836515
vt 0.061076 0.910545
vt 0.035462 0.910545
vt 0.035462 0.910545
vt 0.035462 0.910545
vt 0.035462 0.910545
vt 0.061076 0.910545
vt 0.035462 0.910545
vt 0.055953 0.910545
vn 0.0000 0.0981 -0.9952
vn 0.0966 -0.2100 -0.9729
vn 0.0000 0.2251 -0.9743
vn -0.0966 -0.2100 -0.9729
vn 0.0000 0.9671 -0.2546
vn 0.0000 0.6853 -0.7282
vn -0.3700 -0.8580 -0.3562
vn -0.3629 -0.9170 -0.1657
vn -0.5061 -0.8435 -0.1799
vn -0.4848 -0.8080 -0.3347
vn 0.0000 -0.3827 -0.9239
vn 0.1431 -0.3784 -0.9145
vn 0.4848 -0.8080 -0.3347
vn 0.5061 -0.8435 -0.1799
vn 0.3629 -0.9170 -0.1657
vn 0.3700 -0.8580 -0.3562
vn -0.1431 -0.3784 -0.9145
vn 0.0843 -0.9900 0.1134
vn 0.0000 -0.2235 -0.9747
vn 0.0000 -0.9233 -0.3842
vn 0.0000 -0.9879 -0.1553
vn 0.0000 -0.3822 -0.9241
vn -0.0843 -0.9900 0.1134
vn 0.0000 1.0000 0.0000
vn -0.0817 0.0978 -0.9918
vn -0.2238 -0.3730 -0.9004
vn 0.0817 0.0978 -0.9918
vn 0.2238 -0.3730 -0.9004
usemtl forest
s 1
f 5/1/1 14/2/2 16/3/3
f 16/3/3 15/4/4 6/5/1
f 7/6/5 45/7/5 4/8/6 3/9/6
f 9/10/7 13/11/8 2/12/9 20/13/10
f 5/1/1 1/14/11 10/15/12 14/2/2
f 1/14/13 42/16/14 12/17/15 10/15/16
f 15/4/4 9/10/17 20/13/11 6/5/1
f 42/16/14 58/18/18 12/17/15
f 14/2/2 17/19/19 16/3/3
f 17/19/19 15/4/4 16/3/3
f 13/11/8 9/10/7 11/20/20 8/21/21
f 8/21/21 11/20/20 10/15/16 12/17/15
f 9/10/17 15/4/4 17/19/19 11/20/22
f 11/20/22 17/19/19 14/2/2 10/15/12
f 12/17/15 58/18/18 8/21/21
f 13/11/8 19/22/23 2/12/9
f 4/8/6 5/1/1 16/3/3
f 16/3/3 6/5/1 3/9/6
f 7/6/5 18/23/24 56/24/24 45/7/5
f 16/3/3 3/9/6 4/8/6
f 58/18/18 19/22/23 8/21/21
f 8/21/21 19/22/23 13/11/8
f 6/25/1 29/26/2 31/27/3
f 31/27/3 30/28/4 37/29/25
f 22/30/5 7/31/5 3/32/6 36/33/6
f 24/34/7 28/35/8 21/36/9 35/37/10
f 6/25/1 20/38/11 25/39/12 29/26/2
f 20/38/13 2/40/14 27/41/15 25/39/16
f 30/28/4 24/34/17 35/37/26 37/29/25
f 2/40/14 19/42/18 27/41/15
f 29/26/2 32/43/19 31/27/3
f 32/43/19 30/28/4 31/27/3
f 28/35/8 24/34/7 26/44/20 23/45/21
f 23/45/21 26/44/20 25/39/16 27/41/15
f 24/34/17 30/28/4 32/43/19 26/44/22
f 26/44/22 32/43/19 29/26/2 25/39/12
f 27/41/15 19/42/18 23/45/21
f 28/35/8 34/46/23 21/36/9
f 3/32/6 6/25/1 31/27/3
f 31/27/3 37/29/25 36/33/6
f 22/30/5 33/47/24 18/48/24 7/31/5
f 31/27/3 36/33/6 3/32/6
f 19/42/18 34/46/23 23/45/21
f 23/45/21 34/46/23 28/35/8
f 44/49/27 52/50/2 54/51/3
f 54/51/3 53/52/4 5/53/1
f 45/54/5 38/55/5 43/56/6 4/57/6
f 47/58/7 51/59/8 42/60/9 1/61/10
f 44/49/27 40/62/28 48/63/12 52/50/2
f 40/62/13 41/64/14 50/65/15 48/63/16
f 53/52/4 47/58/17 1/61/11 5/53/1
f 41/64/14 39/66/18 50/65/15
f 52/50/2 55/67/19 54/51/3
f 55/67/19 53/52/4 54/51/3
f 51/59/8 47/58/7 49/68/20 46/69/21
f 46/69/21 49/68/20 48/63/16 50/65/15
f 47/58/17 53/52/4 55/67/19 49/68/22
f 49/68/22 55/67/19 52/50/2 48/63/12
f 50/65/15 39/66/18 46/69/21
f 51/59/8 58/70/23 42/60/9
f 43/56/6 44/49/27 54/51/3
f 54/51/3 5/53/1 4/57/6
f 45/54/5 56/71/24 57/72/24 38/55/5
f 54/51/3 4/57/6 43/56/6
f 39/66/18 58/70/23 46/69/21
f 46/69/21 58/70/23 51/59/8
f 60/73/24 18/48/24 33/74/24 59/75/24
f 57/76/24 56/24/24 61/77/24 62/78/24
f 56/24/24 18/48/24 60/73/24 61/77/24
