# Blender v3.4.1 OBJ File: 'Forest_Nature_Pack_Export.blend'
# www.blender.org
mtllib Hill_Cliff_E_Color1.mtl
o Hill_Cliff_E_Color1
v -0.475000 -0.300000 0.950000
v -0.950000 -0.300000 0.380000
v -0.950000 1.700000 0.380000
v -0.475000 1.700000 0.950000
v -0.950000 -0.300000 -0.475000
v -0.380000 -0.300000 -0.950000
v -0.380000 1.700000 -0.950000
v -0.950000 1.700000 -0.475000
v 0.950000 -0.300000 0.475000
v 0.380000 -0.300000 0.950000
v 0.380000 1.700000 0.950000
v 0.950000 1.700000 0.475000
v 0.475000 -0.300000 -0.950000
v 0.950000 -0.300000 -0.380000
v 0.950000 1.700000 -0.380000
v 0.475000 1.700000 -0.950000
v -0.475000 1.300000 0.950000
v -0.950000 1.200000 0.380000
v -0.380000 1.300000 -0.950000
v -0.950000 1.200000 -0.475000
v 0.950000 1.200000 -0.380000
v 0.475000 1.300000 -0.950000
v 0.380000 1.300000 0.950000
v 0.950000 1.200000 0.475000
v -0.475000 0.500000 0.950000
v -0.384115 0.700000 0.730584
v -0.730584 0.600000 0.289115
v -0.950000 0.400000 0.380000
v -0.289115 0.800000 -0.730584
v -0.380000 0.600000 -0.950000
v -0.950000 0.400000 -0.475000
v -0.730584 0.600000 -0.384115
v 0.730584 0.600000 -0.289115
v 0.950000 0.400000 -0.380000
v 0.475000 0.500000 -0.950000
v 0.384115 0.700000 -0.730584
v 0.289115 0.800000 0.730584
v 0.380000 0.600000 0.950000
v 0.950000 0.400000 0.475000
v 0.730584 0.600000 0.384115
vt 0.077985 0.397663
vt 0.077985 0.418839
vt 0.043144 0.418839
vt 0.043144 0.397663
vt 0.101212 0.392369
vt 0.101212 0.418839
vt 0.101212 0.418839
vt 0.101212 0.392369
vt 0.023788 0.392369
vt 0.023788 0.418839
vt 0.023788 0.418839
vt 0.023788 0.392369
vt 0.047015 0.397663
vt 0.047015 0.418839
vt 0.081856 0.418839
vt 0.081856 0.397663
vt 0.050719 0.352442
vt 0.078152 0.347148
vt 0.092271 0.341854
vt 0.092271 0.341854
vt 0.074281 0.352442
vt 0.077985 0.360604
vt 0.077985 0.328839
vt 0.101212 0.328839
vt 0.101212 0.350016
vt 0.101212 0.328839
vt 0.101212 0.350016
vt 0.046847 0.347148
vt 0.043144 0.328839
vt 0.043144 0.355310
vt 0.023788 0.350016
vt 0.023788 0.328839
vt 0.047015 0.360604
vt 0.047015 0.328839
vt 0.023788 0.328839
vt 0.023788 0.350016
vt 0.032729 0.341854
vt 0.032729 0.341854
vt 0.081856 0.355310
vt 0.081856 0.328839
vt 0.077985 0.379354
vt 0.101212 0.368766
vt 0.092271 0.379354
vt 0.074281 0.389942
vt 0.101212 0.368766
vt 0.081856 0.374060
vt 0.078152 0.384648
vt 0.092271 0.379354
vt 0.047015 0.379354
vt 0.023788 0.368766
vt 0.032729 0.379354
vt 0.050719 0.389942
vt 0.046847 0.384648
vt 0.032729 0.379354
vt 0.023788 0.368766
vt 0.043144 0.374060
vn 0.3233 -0.1789 0.9292
vn 0.3404 0.0000 0.9403
vn 0.0000 0.0000 1.0000
vn 0.0118 -0.1797 0.9836
vn 0.9198 -0.1860 -0.3455
vn 0.9403 0.0000 -0.3404
vn 1.0000 0.0000 0.0000
vn 0.9861 -0.1662 0.0000
vn -0.9198 -0.1860 0.3455
vn -0.9403 0.0000 0.3404
vn -1.0000 0.0000 0.0000
vn -0.9861 -0.1662 -0.0000
vn -0.3233 -0.1789 -0.9292
vn -0.3404 0.0000 -0.9403
vn 0.0000 0.0000 -1.0000
vn -0.0118 -0.1797 -0.9836
vn -0.7482 -0.1489 0.6466
vn -0.7682 0.0000 0.6402
vn -0.2898 -0.3804 -0.8782
vn -0.0242 -0.3704 -0.9285
vn 0.8765 -0.3648 -0.3142
vn 0.9392 -0.3434 0.0000
vn 0.2898 -0.3804 0.8782
vn 0.5195 -0.3645 0.7728
vn 0.5890 -0.1913 0.7852
vn 0.6402 0.0000 0.7682
vn 0.7482 -0.1489 -0.6466
vn 0.7682 0.0000 -0.6402
vn 0.3223 0.0000 0.9467
vn -0.5890 -0.1913 -0.7852
vn -0.6402 0.0000 -0.7682
vn 0.9351 0.0000 -0.3543
vn 0.0242 -0.3704 0.9285
vn -0.9351 0.0000 0.3543
vn -0.3223 0.0000 -0.9467
vn -0.5195 -0.3645 -0.7728
vn -0.8765 -0.3648 0.3142
vn -0.9392 -0.3434 -0.0000
vn 0.6948 -0.3431 -0.6321
vn -0.6948 -0.3431 0.6321
vn 0.5810 0.7300 0.3600
vn 0.6432 0.7479 0.1642
vn 0.6348 0.7471 0.1971
vn 0.6452 0.7445 -0.1716
vn 0.3739 0.7662 -0.5226
vn 0.3536 0.7666 -0.5360
vn 0.6447 0.7444 -0.1741
vn -0.5810 0.7300 -0.3600
vn -0.6432 0.7479 -0.1642
vn -0.6348 0.7471 -0.1971
vn -0.3536 0.7666 0.5360
vn -0.6447 0.7444 0.1741
vn -0.6452 0.7445 0.1716
vn -0.3739 0.7662 0.5226
vn 0.0963 0.7356 -0.6705
vn -0.0963 0.7356 0.6705
usemtl forest
s 1
f 23/1/1 11/2/2 4/3/3 17/4/4
f 21/5/5 15/6/6 12/7/7 24/8/8
f 18/9/9 3/10/10 8/11/11 20/12/12
f 19/13/13 7/14/14 16/15/15 22/16/16
f 17/4/17 4/3/18 3/10/10 18/9/9
f 29/17/19 19/13/13 22/16/16 36/18/20
f 33/19/21 21/5/5 24/8/8 40/20/22
f 23/1/1 37/21/23 40/20/24 24/8/25
f 11/2/2 23/1/1 24/8/25 12/7/26
f 15/6/6 21/5/5 22/16/27 16/15/28
f 38/22/29 10/23/2 9/24/26 39/25/26
f 7/14/14 19/13/13 20/12/30 8/11/31
f 14/26/6 34/27/32 39/25/7 9/24/7
f 37/21/23 23/1/1 17/4/4 26/28/33
f 1/29/18 25/30/18 28/31/34 2/32/10
f 30/33/35 6/34/14 5/35/31 31/36/31
f 19/13/13 29/17/19 32/37/36 20/12/30
f 27/38/37 18/9/9 20/12/12 32/37/38
f 6/34/14 30/33/35 35/39/15 13/40/15
f 34/27/32 14/26/6 13/40/28 35/39/28
f 21/5/5 33/19/21 36/18/39 22/16/27
f 26/28/40 17/4/17 18/9/9 27/38/37
f 2/32/10 28/31/34 31/36/11 5/35/11
f 38/41/41 39/42/42 40/43/43 37/44/41
f 34/45/44 35/46/45 36/47/46 33/48/47
f 30/49/48 31/50/49 32/51/50 29/52/48
f 26/53/51 27/54/52 28/55/53 25/56/54
f 29/52/55 36/47/46 35/46/45 30/49/55
f 27/54/52 32/51/50 31/50/49 28/55/53
f 33/48/47 40/43/43 39/42/42 34/45/44
f 37/44/56 26/53/51 25/56/54 38/41/56
f 10/23/2 38/22/29 25/30/3 1/29/3
