# Blender v3.4.1 OBJ File: 'Forest_Nature_Pack_Export.blend'
# www.blender.org
mtllib Hill_Cliff_Tall_F_Side_Color1.mtl
o Hill_Cliff_Tall_F_Side_Color1
v 0.999998 -0.300000 0.000000
v 0.999999 -0.300000 -0.857142
v 0.499999 -0.300000 -1.500000
v 0.499998 -0.300000 0.857143
v 0.499998 -0.300000 1.500000
v 0.999998 1.500000 0.000000
v 0.999999 1.500000 -0.857142
v 0.499999 1.500000 -1.500000
v 0.499998 1.500000 1.500000
v 0.499998 1.500000 0.857143
v 0.749998 0.700000 0.000000
v 0.999998 0.500000 0.000000
v 0.716663 0.300000 -0.795048
v 0.999999 0.100000 -0.857142
v 0.250007 0.500000 -1.500000
v 0.499999 0.300000 -1.500000
v 0.250005 0.500000 1.500000
v 0.499998 0.300000 1.500000
v 0.581341 0.600000 0.857143
v 0.342068 0.800000 0.795049
v 0.999998 3.700000 0.000000
v 0.999999 3.700000 -0.857142
v 0.499999 3.700000 -1.500000
v 0.499998 3.700000 0.857143
v 0.499998 3.700000 1.500000
v 0.999998 3.200000 0.000000
v 0.999999 3.200000 -0.857142
v 0.499999 3.200000 -1.500000
v 0.499998 3.200000 1.500000
v 0.499998 3.200000 0.857143
v 0.749998 2.300000 0.000000
v 0.999998 2.099999 0.000000
v 0.760726 2.400000 -0.795048
v 0.999999 2.200000 -0.857142
v 0.250007 2.600000 -1.500000
v 0.499999 2.400000 -1.500000
v 0.250005 2.600000 1.500000
v 0.499998 2.400000 1.500000
v 0.499998 2.100000 0.857143
v 0.260725 2.300000 0.795049
vt 0.072178 0.376208
vt 0.071477 0.330615
vt 0.079436 0.330615
vt 0.079436 0.376208
vt 0.045563 0.376208
vt 0.045563 0.340089
vt 0.053523 0.340089
vt 0.052822 0.376208
vt 0.045563 0.355681
vt 0.045563 0.373839
vt 0.052822 0.373839
vt 0.052822 0.355681
vt 0.062500 0.373839
vt 0.062500 0.350944
vt 0.072178 0.346207
vt 0.072178 0.373839
vt 0.079436 0.373839
vt 0.079436 0.346207
vt 0.062500 0.335352
vt 0.062500 0.376208
vt 0.045563 0.374431
vt 0.052822 0.374431
vt 0.053523 0.377589
vt 0.045563 0.377589
vt 0.072178 0.364958
vt 0.079436 0.364958
vt 0.079436 0.368115
vt 0.071477 0.368115
vt 0.062500 0.372852
vt 0.062500 0.369694
vt 0.062500 0.392194
vt 0.062500 0.373839
vt 0.052822 0.373839
vt 0.052822 0.392194
vt 0.072178 0.392194
vt 0.072178 0.373839
vt 0.071477 0.379563
vt 0.079436 0.382721
vt 0.079436 0.392194
vt 0.045563 0.392194
vt 0.045563 0.382721
vt 0.053523 0.377984
vt 0.062500 0.390418
vt 0.072178 0.395155
vt 0.045563 0.373839
vt 0.045563 0.398313
vt 0.052822 0.393576
vt 0.079436 0.373839
vt 0.062500 0.374826
vt 0.079436 0.398313
vt 0.045563 0.417063
vt 0.052822 0.412326
vt 0.053523 0.415484
vt 0.045563 0.420221
vt 0.072178 0.413905
vt 0.079436 0.417063
vt 0.079436 0.420221
vt 0.071477 0.417063
vt 0.062500 0.412326
vt 0.062500 0.409168
vn 0.9439 -0.1204 -0.3074
vn 0.9143 -0.2419 -0.3250
vn 0.7805 -0.2059 -0.5903
vn 0.7890 -0.1082 -0.6048
vn 0.9930 -0.1177 0.0072
vn 0.9722 -0.2338 0.0144
vn 0.9393 -0.2481 0.2371
vn 0.9578 -0.1280 0.2574
vn 0.9973 -0.0541 0.0505
vn 0.9628 -0.0494 0.2655
vn 0.9528 -0.0484 0.2997
vn 0.9694 -0.0217 0.2444
vn 0.9563 -0.0259 0.2911
vn 0.9514 0.0000 -0.3078
vn 0.9459 0.0000 -0.3245
vn 0.7894 0.0000 -0.6139
vn 0.9352 -0.2596 0.2408
vn 0.9569 -0.1282 0.2607
vn 0.5500 0.7344 0.3977
vn 0.5784 0.7553 0.3082
vn 0.5804 0.7567 0.3010
vn 0.5540 0.7827 -0.2838
vn 0.5772 0.7971 -0.1774
vn 0.5552 0.7836 -0.2788
vn 0.5984 0.8008 -0.0253
vn 0.5807 0.7984 -0.1594
vn 0.9581 -0.1334 0.2535
vn 0.9653 0.0000 0.2610
vn 0.9481 -0.1477 0.2816
vn 0.9344 -0.1458 -0.3250
vn 0.9091 -0.2965 -0.2927
vn 0.7454 -0.2872 -0.6016
vn 0.7740 -0.1554 -0.6138
vn 0.9866 -0.1581 0.0390
vn 0.9469 -0.3121 0.0770
vn 0.9032 -0.2796 0.3255
vn 0.9678 0.0000 0.2517
vn 0.9330 0.0000 -0.3597
vn 1.0000 0.0000 0.0000
vn 0.9734 0.0000 0.2290
vn 0.9234 -0.2681 0.2748
vn 0.6246 0.7153 -0.3135
vn 0.6287 0.7762 0.0463
vn 0.6344 0.7727 -0.0212
vn 0.6292 0.7761 -0.0417
vn 0.6001 0.7685 -0.2220
vn 0.6252 0.7767 -0.0767
vn 0.6046 0.7619 0.2324
vn 0.6122 0.7636 0.2051
usemtl forest
s 1
f 7/1/1 13/2/2 15/3/3 8/4/4
f 9/5/5 17/6/6 20/7/7 10/8/8
f 18/9/9 5/10/9 4/11/10 19/12/11
f 1/13/12 12/14/13 19/12/11 4/11/10
f 14/15/14 2/16/15 3/17/16 16/18/16
f 11/19/17 6/20/18 10/8/8 20/7/7
f 2/16/15 14/15/14 12/14/13 1/13/12
f 13/2/2 7/1/1 6/20/18 11/19/17
f 18/21/19 19/22/20 20/23/21 17/24/19
f 14/25/22 16/26/23 15/27/23 13/28/24
f 13/28/24 11/29/25 12/30/26 14/25/22
f 11/29/25 20/23/21 19/22/20 12/30/26
f 26/31/27 21/32/28 24/33/28 30/34/29
f 27/35/30 22/36/15 21/32/28 26/31/27
f 27/35/30 33/37/31 35/38/32 28/39/33
f 29/40/34 37/41/35 40/42/36 30/34/29
f 32/43/37 6/20/18 7/1/1 34/44/38
f 25/45/39 29/40/34 30/34/29 24/33/28
f 38/46/39 9/5/5 10/8/8 39/47/40
f 22/36/15 27/35/30 28/39/33 23/48/16
f 31/49/41 26/31/27 30/34/29 40/42/36
f 34/44/38 7/1/1 8/4/4 36/50/16
f 39/47/40 10/8/8 6/20/18 32/43/37
f 33/37/31 27/35/30 26/31/27 31/49/41
f 38/51/42 39/52/43 40/53/44 37/54/42
f 34/55/45 36/56/46 35/57/46 33/58/47
f 33/58/47 31/59/48 32/60/49 34/55/45
f 31/59/48 40/53/44 39/52/43 32/60/49
