# Blender v3.4.1 OBJ File: 'Forest_Nature_Pack_Export.blend'
# www.blender.org
mtllib Hill_Cliff_B_Side_Color1.mtl
o Hill_Cliff_B_Side_Color1
v 0.000000 -0.300000 -0.999998
v -0.857143 -0.300000 -0.999998
v -1.500000 -0.300000 -0.499999
v 0.857143 -0.300000 -0.499998
v 1.500000 -0.300000 -0.499998
v 0.000000 0.000000 -0.999998
v -0.857143 0.000000 -0.999998
v -1.500000 0.000000 -0.499999
v 1.500000 0.000000 -0.499998
v 0.857143 0.000000 -0.499998
v 0.000000 1.700000 -0.999998
v -0.857143 1.700000 -0.999998
v -1.500000 1.700000 -0.499999
v 0.857143 1.700000 -0.499998
v 1.500000 1.700000 -0.499998
v 0.000000 1.200000 -0.999998
v -0.857143 1.200000 -0.999998
v -1.500000 1.200000 -0.499999
v 1.500000 1.200000 -0.499998
v 0.857143 1.200000 -0.499998
v 0.000000 0.300000 -0.749998
v 0.000000 0.099999 -0.999998
v -0.795048 0.400000 -0.760725
v -0.857143 0.200000 -0.999998
v -1.500000 0.600000 -0.250006
v -1.500000 0.400000 -0.499999
v 1.500000 0.600000 -0.250005
v 1.500000 0.400000 -0.499998
v 0.857143 0.100000 -0.499998
v 0.795049 0.300000 -0.260725
vt 0.052822 0.376208
vt 0.045563 0.376208
vt 0.045563 0.373839
vt 0.052822 0.373839
vt 0.079436 0.373839
vt 0.079436 0.376208
vt 0.072178 0.376208
vt 0.072178 0.373839
vt 0.062500 0.373839
vt 0.062500 0.376208
vt 0.062500 0.392194
vt 0.062500 0.373839
vt 0.052822 0.373839
vt 0.052822 0.392194
vt 0.072178 0.392194
vt 0.072178 0.373839
vt 0.071477 0.379563
vt 0.079436 0.382721
vt 0.079436 0.392194
vt 0.045563 0.392194
vt 0.045563 0.382721
vt 0.053523 0.377984
vt 0.062500 0.390418
vt 0.072178 0.395155
vt 0.045563 0.373839
vt 0.045563 0.398313
vt 0.052822 0.393576
vt 0.079436 0.373839
vt 0.062500 0.374826
vt 0.079436 0.398313
vt 0.045563 0.417063
vt 0.052822 0.412326
vt 0.053523 0.415484
vt 0.045563 0.420221
vt 0.072178 0.413905
vt 0.079436 0.417063
vt 0.079436 0.420221
vt 0.071477 0.417063
vt 0.062500 0.412326
vt 0.062500 0.409168
vn 0.2610 0.0000 -0.9653
vn 0.0000 0.0000 -1.0000
vn -0.6139 0.0000 -0.7894
vn -0.3245 0.0000 -0.9459
vn 0.2535 -0.1334 -0.9581
vn 0.2816 -0.1477 -0.9481
vn -0.3250 -0.1458 -0.9344
vn -0.2927 -0.2965 -0.9091
vn -0.6016 -0.2872 -0.7454
vn -0.6138 -0.1554 -0.7740
vn 0.0390 -0.1581 -0.9866
vn 0.0770 -0.3121 -0.9469
vn 0.3255 -0.2796 -0.9032
vn 0.2517 0.0000 -0.9678
vn -0.3598 0.0000 -0.9330
vn 0.2290 0.0000 -0.9734
vn 0.2748 -0.2681 -0.9234
vn -0.3135 0.7153 -0.6246
vn 0.0463 0.7762 -0.6287
vn -0.0212 0.7727 -0.6344
vn -0.0417 0.7761 -0.6292
vn -0.2220 0.7685 -0.6001
vn -0.0767 0.7767 -0.6252
vn 0.2324 0.7619 -0.6046
vn 0.2051 0.7636 -0.6122
usemtl forest
s 1
f 10/1/1 9/2/2 5/3/2 4/4/1
f 3/5/3 8/6/3 7/7/4 2/8/4
f 10/1/1 4/4/1 1/9/1 6/10/1
f 1/9/1 2/8/4 7/7/4 6/10/1
f 16/11/5 11/12/1 14/13/1 20/14/6
f 17/15/7 12/16/4 11/12/1 16/11/5
f 17/15/7 23/17/8 25/18/9 18/19/10
f 19/20/11 27/21/12 30/22/13 20/14/6
f 22/23/14 6/10/1 7/7/4 24/24/15
f 15/25/2 19/20/11 20/14/6 14/13/1
f 28/26/2 9/2/2 10/1/1 29/27/16
f 12/16/4 17/15/7 18/19/10 13/28/3
f 21/29/17 16/11/5 20/14/6 30/22/13
f 24/24/15 7/7/4 8/6/3 26/30/3
f 29/27/16 10/1/1 6/10/1 22/23/14
f 23/17/8 17/15/7 16/11/5 21/29/17
f 28/31/18 29/32/19 30/33/20 27/34/18
f 24/35/21 26/36/22 25/37/22 23/38/23
f 23/38/23 21/39/24 22/40/25 24/35/21
f 21/39/24 30/33/20 29/32/19 22/40/25
