# Blender v3.4.1 OBJ File: 'Forest_Nature_Pack_Export.blend'
# www.blender.org
mtllib Hill_Cliff_A_OuterCorner_Color1.mtl
o Hill_Cliff_A_OuterCorner_Color1
v -0.800000 -0.300000 -0.325000
v -0.325000 -0.300000 -0.800000
v 0.500000 -0.300000 -1.000000
v 1.500000 -0.300000 -0.500000
v -1.000000 -0.300000 0.500000
v -0.500000 -0.300000 1.500000
v -0.325000 0.000000 -0.800000
v -0.800000 0.000000 -0.325000
v 1.500000 0.000000 -0.500000
v 0.500000 0.000000 -1.000000
v -1.000000 0.000000 0.500000
v -0.500000 0.000000 1.500000
v -0.325000 1.700000 -0.800000
v -0.800000 1.700000 -0.325000
v 0.500000 1.700000 -1.000000
v 1.500000 1.700000 -0.500000
v -1.000000 1.700000 0.500000
v -0.500000 1.700000 1.500000
v -0.325000 1.200000 -0.800000
v -0.800000 1.200000 -0.325000
v 1.500000 1.200000 -0.500000
v 0.500000 1.200000 -1.000000
v -1.000000 1.200000 0.500000
v -0.500000 1.200000 1.500000
v -0.325000 0.500000 -0.800000
v -0.234115 0.700000 -0.580584
v -0.580584 0.600000 -0.234116
v -0.800000 0.400000 -0.325000
v 1.500000 0.600000 -0.250007
v 1.500000 0.400000 -0.500000
v 0.427557 0.700000 -0.760727
v 0.500000 0.500000 -1.000000
v -0.760727 0.400000 0.427557
v -1.000000 0.200000 0.500000
v -0.250008 0.600000 1.500000
v -0.500000 0.400000 1.500000
vt 0.086695 0.373839
vt 0.094679 0.373839
vt 0.094679 0.376208
vt 0.086695 0.376208
vt 0.096373 0.373839
vt 0.096373 0.376208
vt 0.101212 0.376208
vt 0.101212 0.373839
vt 0.079436 0.376208
vt 0.079436 0.373839
vt 0.099276 0.373839
vt 0.099276 0.376208
vt 0.093800 0.384300
vt 0.094679 0.392194
vt 0.086695 0.392194
vt 0.087396 0.384300
vt 0.101212 0.392194
vt 0.101212 0.373839
vt 0.099276 0.373839
vt 0.099276 0.392194
vt 0.079436 0.392194
vt 0.079436 0.382721
vt 0.098896 0.379563
vt 0.093953 0.382721
vt 0.096373 0.392194
vt 0.094679 0.373839
vt 0.086695 0.373839
vt 0.097153 0.382721
vt 0.096373 0.373839
vt 0.086695 0.399892
vt 0.094679 0.399892
vt 0.101212 0.395155
vt 0.096373 0.398313
vt 0.079436 0.373839
vt 0.079436 0.398313
vt 0.099276 0.398313
vt 0.093800 0.421800
vt 0.087396 0.421800
vt 0.086695 0.418642
vt 0.094679 0.418642
vt 0.101212 0.413905
vt 0.096373 0.417063
vt 0.093953 0.420221
vt 0.098896 0.417063
vt 0.079436 0.417063
vt 0.079436 0.420221
vt 0.097153 0.420221
vt 0.099276 0.417063
vn -0.2356 0.0000 -0.9719
vn -0.4896 0.0000 -0.8720
vn -0.8944 0.0000 0.4472
vn 0.4472 0.0000 -0.8944
vn -0.8720 0.0000 -0.4896
vn -0.9719 0.0000 -0.2356
vn -0.4590 -0.3989 -0.7939
vn -0.4730 -0.1983 -0.8584
vn 0.1102 -0.2069 -0.9721
vn 0.0757 -0.4234 -0.9028
vn -0.9554 -0.1454 -0.2570
vn -0.8516 -0.1708 -0.4956
vn 0.4243 -0.2127 -0.8802
vn 0.3870 -0.3959 -0.8328
vn -0.8792 -0.1577 0.4497
vn -0.8402 -0.3164 0.4403
vn -0.8773 -0.1686 0.4494
vn -0.8132 -0.3436 -0.4698
vn -0.4775 0.0000 -0.8787
vn -0.9128 -0.3027 -0.2741
vn -0.8544 0.0000 -0.5196
vn -0.3777 0.7616 -0.5266
vn 0.0677 0.7746 -0.6288
vn 0.1271 0.7749 -0.6191
vn -0.3684 0.7619 -0.5327
vn -0.6333 0.7675 0.0995
vn -0.6126 0.7763 0.1489
vn -0.6386 0.7647 0.0862
vn 0.3467 0.7507 -0.5624
vn -0.6166 0.7587 -0.2102
vn -0.6314 0.7616 -0.1457
usemtl forest
s 1
f 3/1/1 2/2/2 7/3/2 10/4/1
f 6/5/3 12/6/3 11/7/3 5/8/3
f 3/1/4 10/4/4 9/9/4 4/10/4
f 1/11/5 5/8/6 11/7/6 8/12/5
f 1/11/5 8/12/5 7/3/2 2/2/2
f 26/13/7 19/14/8 22/15/9 31/16/10
f 23/17/11 17/18/6 14/19/5 20/20/12
f 21/21/13 29/22/14 31/16/10 22/15/9
f 23/17/15 33/23/16 35/24/16 24/25/17
f 19/14/8 13/26/2 15/27/1 22/15/9
f 19/14/8 26/13/7 27/28/18 20/20/12
f 17/18/3 23/17/15 24/25/17 18/29/3
f 32/30/1 10/4/1 7/3/2 25/31/19
f 34/32/3 11/7/3 12/6/3 36/33/3
f 16/34/4 21/21/13 22/15/9 15/27/4
f 33/23/20 23/17/11 20/20/12 27/28/18
f 30/35/4 9/9/4 10/4/4 32/30/4
f 28/36/21 8/12/5 11/7/6 34/32/6
f 13/26/2 19/14/8 20/20/12 14/19/5
f 25/31/19 7/3/2 8/12/5 28/36/21
f 26/37/22 31/38/23 32/39/24 25/40/25
f 34/41/26 36/42/27 35/43/27 33/44/28
f 30/45/29 32/39/24 31/38/23 29/46/29
f 33/44/28 27/47/30 28/48/31 34/41/26
f 25/40/25 28/48/31 27/47/30 26/37/22
