# Blender v3.4.1 OBJ File: 'Forest_Nature_Pack_Export.blend'
# www.blender.org
mtllib Hill_Top_I_InnerCorner_Color1.mtl
o Hill_Top_I_InnerCorner_Color1
v 1.500000 0.000000 -0.500001
v -1.499999 0.000000 1.500001
v -1.500000 0.000000 -0.499999
v -0.499999 0.000000 1.500000
v -0.500000 0.000000 -0.500000
v 1.499999 0.000000 -1.500001
v -0.500001 0.000000 -1.500000
v -1.500001 0.000000 -1.499999
v 1.000001 0.000000 1.500000
v 0.500000 0.000000 -0.500000
v 0.499999 0.000000 -1.500000
v -1.500000 0.000000 0.500001
v -0.500000 0.000000 0.500000
v 1.500000 0.000000 0.999999
v 1.000000 0.000000 0.999999
v 1.500003 -0.100000 1.176776
v 1.176778 -0.100000 1.499999
v 1.500003 -0.250000 1.249999
v 1.250001 -0.250000 1.499999
v 1.500003 -0.426777 1.176780
v 1.176778 -0.426777 1.499999
v 1.000001 -0.500000 1.500000
v -1.499999 -0.500000 1.500001
v 1.500002 -0.500000 0.999999
v 1.500001 -0.500000 -1.500001
v -1.500000 -0.500000 -1.499999
vt 0.035462 0.941795
vt 0.035462 0.941795
vt 0.035462 0.941795
vt 0.055953 0.910545
vt 0.055953 0.910545
vt 0.048269 0.910545
vt 0.048269 0.910545
vt 0.048269 0.910545
vt 0.048269 0.910545
vt 0.055953 0.910545
vt 0.048269 0.910545
vt 0.055953 0.910545
vt 0.055953 0.910545
vt 0.048269 0.910545
vt 0.048269 0.910545
vt 0.035462 0.936364
vt 0.035462 0.936364
vt 0.035462 0.896967
vt 0.035462 0.896967
vt 0.035462 0.840491
vt 0.035462 0.840491
vt 0.035462 0.836515
vt 0.035462 0.836515
vt 0.048269 0.836515
vt 0.048269 0.836515
vt 0.048269 0.836515
vn 0.1286 0.9833 0.1286
vn 0.0000 1.0000 0.0000
vn 0.5430 0.6406 0.5430
vn 0.7068 0.0273 0.7068
vn 0.6786 -0.2811 0.6786
vn 0.0981 -0.9903 0.0981
vn 0.3574 -0.8629 0.3574
vn 0.0000 -1.0000 0.0000
usemtl forest
s 1
f 14/1/1 15/2/2 9/3/1
f 6/4/2 11/5/2 10/6/2 1/7/2
f 13/8/2 5/9/2 3/10/2 12/11/2
f 11/5/2 7/12/2 5/9/2 10/6/2
f 8/13/2 3/10/2 5/9/2 7/12/2
f 15/2/2 13/8/2 4/14/2 9/3/1
f 10/6/2 5/9/2 13/8/2 15/2/2
f 4/14/2 13/8/2 12/11/2 2/15/2
f 1/7/2 10/6/2 15/2/2 14/1/1
f 9/3/1 17/16/3 16/17/3 14/1/1
f 17/16/3 19/18/4 18/19/4 16/17/3
f 19/18/4 21/20/5 20/21/5 18/19/4
f 22/22/6 24/23/6 20/21/7 21/20/7
f 23/24/8 25/25/8 24/23/6 22/22/6
f 25/25/8 23/24/8 26/26/8
