# Blender v3.4.1 OBJ File: 'Forest_Nature_Pack_Export.blend'
# www.blender.org
mtllib Hill_Cliff_Tall_I_OuterCorner_Color1.mtl
o Hill_Cliff_Tall_I_OuterCorner_Color1
v 0.800000 -0.300000 0.325000
v 0.325000 -0.300000 0.800000
v -0.500000 -0.300000 1.000000
v -1.500000 -0.300000 0.500000
v 1.000000 -0.300000 -0.500000
v 0.500000 -0.300000 -1.500000
v 0.325000 1.500000 0.800000
v 0.800000 1.500000 0.325000
v -1.500000 1.500000 0.500000
v -0.500000 1.500000 1.000000
v 1.000000 1.500000 -0.500000
v 0.500000 1.500000 -1.500000
v 0.325000 0.200000 0.800000
v 0.234116 0.400000 0.580584
v 0.580584 0.600000 0.234116
v 0.800000 0.400000 0.325000
v -1.500000 0.500000 0.250008
v -1.500000 0.300000 0.500000
v -0.427557 0.600000 0.760727
v -0.500000 0.400000 1.000000
v 0.760727 0.600000 -0.427557
v 1.000000 0.400000 -0.500000
v 0.250008 0.500000 -1.500000
v 0.500000 0.300000 -1.500000
v 0.325000 3.700000 0.800000
v 0.800000 3.700000 0.325000
v -0.500000 3.700000 1.000000
v -1.500000 3.700000 0.500000
v 1.000000 3.700000 -0.500000
v 0.500000 3.700000 -1.500000
v 0.325000 3.200000 0.800000
v 0.800000 3.200000 0.325000
v -1.500000 3.200000 0.500000
v -0.500000 3.200000 1.000000
v 1.000000 3.200000 -0.500000
v 0.500000 3.200000 -1.500000
v 0.325000 2.500000 0.800000
v 0.234116 2.700000 0.580584
v 0.580584 2.600000 0.234116
v 0.800000 2.400000 0.325000
v -1.500000 2.600000 0.250008
v -1.500000 2.400000 0.500000
v -0.427557 2.700000 0.760727
v -0.500000 2.500000 1.000000
v 0.760727 2.400000 -0.427557
v 1.000000 2.200000 -0.500000
v 0.250008 2.600000 -1.500000
v 0.500000 2.400000 -1.500000
vt 0.093800 0.332194
vt 0.094679 0.376208
vt 0.086695 0.376208
vt 0.087396 0.335352
vt 0.079436 0.376208
vt 0.079436 0.330615
vt 0.101212 0.376208
vt 0.098896 0.335352
vt 0.093953 0.340089
vt 0.096373 0.376208
vt 0.097153 0.335352
vt 0.099276 0.376208
vt 0.101212 0.373839
vt 0.101212 0.350944
vt 0.099276 0.350944
vt 0.099276 0.373839
vt 0.096373 0.373839
vt 0.096373 0.355681
vt 0.079436 0.346207
vt 0.079436 0.373839
vt 0.086695 0.373839
vt 0.086695 0.350944
vt 0.094679 0.373839
vt 0.094679 0.347786
vt 0.093800 0.369694
vt 0.087396 0.372852
vt 0.086695 0.369694
vt 0.094679 0.366536
vt 0.101212 0.369694
vt 0.096373 0.374431
vt 0.093953 0.377589
vt 0.098896 0.372852
vt 0.079436 0.364958
vt 0.079436 0.368115
vt 0.097153 0.372852
vt 0.099276 0.369694
vt 0.093800 0.384300
vt 0.094679 0.392194
vt 0.086695 0.392194
vt 0.087396 0.384300
vt 0.101212 0.392194
vt 0.101212 0.373839
vt 0.099276 0.373839
vt 0.099276 0.392194
vt 0.079436 0.392194
vt 0.079436 0.382721
vt 0.098896 0.379563
vt 0.093953 0.382721
vt 0.096373 0.392194
vt 0.094679 0.373839
vt 0.086695 0.373839
vt 0.097153 0.382721
vt 0.096373 0.373839
vt 0.086695 0.399892
vt 0.094679 0.399892
vt 0.101212 0.395155
vt 0.096373 0.398313
vt 0.079436 0.373839
vt 0.079436 0.398313
vt 0.099276 0.398313
vt 0.093800 0.421800
vt 0.087396 0.421800
vt 0.086695 0.418642
vt 0.094679 0.418642
vt 0.101212 0.413905
vt 0.096373 0.417063
vt 0.093953 0.420221
vt 0.098896 0.417063
vt 0.079436 0.417063
vt 0.079436 0.420221
vt 0.097153 0.420221
vt 0.099276 0.417063
vn 0.4809 -0.2270 0.8469
vn 0.4889 -0.1118 0.8652
vn -0.1156 -0.1198 0.9860
vn -0.0798 -0.2425 0.9669
vn -0.4343 -0.1258 0.8919
vn -0.4159 -0.2416 0.8767
vn 0.9860 -0.1256 -0.1092
vn 0.9624 -0.2561 -0.0908
vn 0.8767 -0.2416 -0.4159
vn 0.8919 -0.1258 -0.4343
vn 0.8388 -0.2331 0.4920
vn 0.8699 -0.1163 0.4792
vn 0.9719 0.0000 0.2356
vn 0.8855 0.0000 0.4646
vn 0.8720 0.0000 0.4896
vn 0.8944 0.0000 -0.4472
vn -0.4472 0.0000 0.8944
vn 0.4896 0.0000 0.8720
vn 0.4935 0.0000 0.8698
vn 0.2356 0.0000 0.9719
vn 0.3156 0.7154 0.6234
vn 0.3475 0.7136 0.6083
vn 0.3203 0.7152 0.6212
vn 0.6191 0.7749 -0.1271
vn 0.5624 0.7507 -0.3467
vn 0.6288 0.7746 -0.0677
vn -0.3467 0.7507 0.5624
vn 0.4917 0.7661 0.4139
vn 0.4864 0.7656 0.4210
vn 0.4590 -0.3989 0.7939
vn 0.4730 -0.1983 0.8584
vn -0.1102 -0.2069 0.9721
vn -0.0757 -0.4234 0.9028
vn 0.9554 -0.1454 0.2570
vn 0.8516 -0.1708 0.4956
vn -0.4243 -0.2127 0.8802
vn -0.3870 -0.3959 0.8328
vn 0.8792 -0.1577 -0.4497
vn 0.8402 -0.3164 -0.4403
vn 0.8773 -0.1686 -0.4494
vn 0.8132 -0.3436 0.4698
vn 0.4775 0.0000 0.8787
vn 0.9128 -0.3027 0.2741
vn 0.8544 0.0000 0.5196
vn 0.3777 0.7616 0.5266
vn -0.0677 0.7746 0.6288
vn -0.1271 0.7749 0.6191
vn 0.3684 0.7619 0.5327
vn 0.6333 0.7675 -0.0995
vn 0.6126 0.7763 -0.1489
vn 0.6386 0.7647 -0.0862
vn 0.6166 0.7587 0.2102
vn 0.6314 0.7616 0.1457
usemtl forest
s 1
f 14/1/1 7/2/2 10/3/3 19/4/4
f 9/5/5 17/6/6 19/4/4 10/3/3
f 11/7/7 21/8/8 23/9/9 12/10/10
f 7/2/2 14/1/1 15/11/11 8/12/12
f 5/13/13 22/14/13 16/15/14 1/16/15
f 22/14/16 5/13/16 6/17/16 24/18/16
f 18/19/17 4/20/17 3/21/17 20/22/17
f 21/8/8 11/7/7 8/12/12 15/11/11
f 2/23/18 13/24/19 20/22/20 3/21/20
f 13/24/19 2/23/18 1/16/15 16/15/14
f 14/25/21 19/26/22 20/27/22 13/28/23
f 22/29/24 24/30/25 23/31/25 21/32/26
f 18/33/27 20/27/27 19/26/27 17/34/27
f 21/32/26 15/35/28 16/36/29 22/29/24
f 13/28/23 16/36/29 15/35/28 14/25/21
f 38/37/30 31/38/31 34/39/32 43/40/33
f 35/41/34 29/42/13 26/43/15 32/44/35
f 33/45/36 41/46/37 43/40/33 34/39/32
f 35/41/38 45/47/39 47/48/39 36/49/40
f 31/38/31 25/50/18 27/51/20 34/39/32
f 31/38/31 38/37/30 39/52/41 32/44/35
f 29/42/16 35/41/38 36/49/40 30/53/16
f 44/54/20 10/3/3 7/2/2 37/55/42
f 46/56/16 11/7/7 12/10/10 48/57/16
f 28/58/17 33/45/36 34/39/32 27/51/17
f 45/47/43 35/41/34 32/44/35 39/52/41
f 42/59/17 9/5/5 10/3/3 44/54/17
f 40/60/44 8/12/12 11/7/7 46/56/13
f 25/50/18 31/38/31 32/44/35 26/43/15
f 37/55/42 7/2/2 8/12/12 40/60/44
f 38/61/45 43/62/46 44/63/47 37/64/48
f 46/65/49 48/66/50 47/67/50 45/68/51
f 42/69/27 44/63/47 43/62/46 41/70/27
f 45/68/51 39/71/52 40/72/53 46/65/49
f 37/64/48 40/72/53 39/71/52 38/61/45
