# Blender v3.4.1 OBJ File: 'Forest_Nature_Pack_Export.blend'
# www.blender.org
mtllib Rock_5_B_Color1.mtl
o Rock_5_B_Color1
v 0.000000 0.203649 -0.038415
v 0.078037 0.175067 -0.078037
v 0.058808 0.137111 -0.141974
v 0.000000 0.000001 0.000000
v 0.038415 0.203649 0.000000
v 0.141974 0.137111 -0.058808
v 0.116675 0.175062 0.000000
v 0.078037 0.175066 0.078037
v 0.141974 0.137111 0.058808
v -0.000000 0.203649 0.038415
v 0.058808 0.137111 0.141974
v -0.000000 0.175062 0.116675
v -0.078037 0.175067 0.078037
v -0.058808 0.137111 0.141974
v -0.038415 0.203649 -0.000000
v -0.141974 0.137111 0.058808
v -0.116675 0.175062 -0.000000
v -0.078037 0.175067 -0.078037
v -0.141974 0.137111 -0.058808
v -0.058808 0.137111 -0.141974
v 0.000000 0.175062 -0.116675
v 0.069092 0.084860 -0.166802
v 0.166803 0.084859 -0.069092
v 0.166803 0.084859 0.069092
v 0.069092 0.084860 0.166802
v -0.069092 0.084860 0.166802
v -0.166803 0.084859 0.069092
v -0.166802 0.084860 -0.069092
v -0.069092 0.084860 -0.166802
v 0.053876 0.002749 -0.130068
v 0.065360 0.027639 -0.157793
v 0.157793 0.027639 -0.065360
v 0.130068 0.002749 -0.053876
v 0.157793 0.027639 0.065360
v 0.130068 0.002749 0.053876
v 0.065360 0.027639 0.157793
v 0.053876 0.002749 0.130068
v -0.065360 0.027639 0.157793
v -0.053876 0.002749 0.130068
v -0.157793 0.027639 0.065360
v -0.130068 0.002749 0.053876
v -0.157793 0.027639 -0.065360
v -0.130068 0.002749 -0.053876
v -0.065360 0.027639 -0.157793
v -0.053876 0.002749 -0.130068
vt 0.052132 0.358223
vt 0.052132 0.358223
vt 0.051851 0.335555
vt 0.051851 0.335555
vt 0.050558 0.369330
vt 0.051352 0.364659
vt 0.051352 0.364659
vt 0.046886 0.369330
vt 0.049342 0.369330
vt 0.048736 0.364659
vt 0.044713 0.358223
vt 0.049061 0.358223
vt 0.048942 0.335555
vt 0.044832 0.335555
vt 0.045038 0.364659
vt 0.046886 0.384955
vt 0.046886 0.388440
vt 0.049342 0.384955
vt 0.048736 0.364659
vt 0.049061 0.358223
vt 0.050978 0.332492
vt 0.048582 0.332492
vt 0.046886 0.332153
vt 0.048942 0.335555
vt 0.050978 0.332492
vt 0.045192 0.332492
vt 0.042796 0.332492
vt 0.046886 0.369330
vt 0.045038 0.364659
vt 0.042422 0.364659
vt 0.041639 0.358223
vt 0.044713 0.358223
vt 0.048722 0.388440
vt 0.050558 0.384955
vt 0.041923 0.335555
vt 0.044832 0.335555
vt 0.049342 0.384955
vt 0.049342 0.369330
vt 0.045052 0.388440
vt 0.044432 0.384955
vt 0.046886 0.388440
vt 0.044432 0.369330
vt 0.042796 0.332492
vt 0.045192 0.332492
vt 0.041923 0.335555
vt 0.041639 0.358223
vt 0.043216 0.369330
vt 0.042422 0.364659
vt 0.046886 0.384955
vt 0.044432 0.384955
vt 0.044432 0.369330
vt 0.043216 0.384955
vt 0.048582 0.332492
vn 0.9145 0.1421 -0.3788
vn 0.9145 0.1421 0.3788
vn 0.8172 -0.4664 0.3385
vn 0.8172 -0.4664 -0.3385
vn 0.5848 0.8112 0.0000
vn 0.7529 0.5748 0.3206
vn 0.7529 0.5748 -0.3206
vn 0.0000 0.8112 -0.5848
vn 0.3935 0.8308 -0.3935
vn 0.3205 0.5748 -0.7529
vn -0.3788 0.1421 -0.9145
vn 0.3788 0.1421 -0.9145
vn 0.3385 -0.4664 -0.8172
vn -0.3385 -0.4664 -0.8172
vn -0.3206 0.5748 -0.7529
vn 0.0000 0.9771 -0.2130
vn 0.3205 0.5748 0.7529
vn 0.3788 0.1421 0.9145
vn 0.3848 -0.9091 0.1594
vn 0.1594 -0.9091 0.3848
vn -0.0000 -1.0000 0.0000
vn 0.3385 -0.4664 0.8172
vn 0.3848 -0.9091 -0.1594
vn -0.1594 -0.9091 0.3848
vn -0.3848 -0.9091 0.1594
vn -0.0000 0.8112 0.5848
vn -0.3206 0.5748 0.7529
vn -0.7529 0.5748 0.3205
vn -0.9145 0.1421 0.3788
vn -0.3788 0.1421 0.9145
vn 0.2130 0.9771 0.0000
vn -0.8172 -0.4664 0.3385
vn -0.3385 -0.4664 0.8172
vn 0.3935 0.8308 0.3935
vn -0.2130 0.9771 0.0000
vn -0.3935 0.8308 0.3935
vn 0.0000 0.9771 0.2130
vn -0.3848 -0.9091 -0.1594
vn -0.1594 -0.9091 -0.3848
vn -0.8172 -0.4664 -0.3385
vn -0.9145 0.1421 -0.3788
vn -0.5848 0.8112 -0.0000
vn -0.7529 0.5748 -0.3206
vn -0.3935 0.8308 -0.3935
vn 0.1594 -0.9091 -0.3848
usemtl forest
s 1
f 23/1/1 24/2/2 34/3/3 32/4/4
f 7/5/5 9/6/6 6/7/7
f 21/8/8 2/9/9 3/10/10
f 29/11/11 22/12/12 31/13/13 44/14/14
f 29/11/11 20/15/15 3/10/10 22/12/12
f 21/16/8 1/17/16 2/18/9
f 9/6/6 11/19/17 25/20/18 24/2/2
f 3/10/10 6/7/7 23/1/1 22/12/12
f 35/21/19 37/22/20 4/23/21
f 25/20/18 36/24/22 34/3/3 24/2/2
f 35/21/19 4/23/21 33/25/23
f 39/26/24 41/27/25 4/23/21
f 6/7/7 9/6/6 24/2/2 23/1/1
f 12/28/26 14/29/27 11/19/17
f 14/29/27 16/30/28 27/31/29 26/32/30
f 2/18/9 5/33/31 7/34/5
f 26/32/30 27/31/29 40/35/32 38/36/33
f 6/7/7 2/9/9 7/5/5
f 7/34/5 5/33/31 8/37/34
f 26/32/30 38/36/33 36/24/22 25/20/18
f 7/5/5 8/38/34 9/6/6
f 15/39/35 13/40/36 10/41/37
f 13/42/36 16/30/28 14/29/27
f 43/43/38 45/44/39 4/23/21
f 37/22/20 39/26/24 4/23/21
f 42/45/40 28/46/41 29/11/11 44/14/14
f 11/19/17 8/38/34 12/28/26
f 11/19/17 14/29/27 26/32/30 25/20/18
f 17/47/42 19/48/43 16/30/28
f 8/37/34 10/41/37 12/49/26
f 12/49/26 10/41/37 13/40/36
f 28/46/41 42/45/40 40/35/32 27/31/29
f 12/28/26 13/42/36 14/29/27
f 5/33/31 2/18/9 1/17/16
f 19/48/43 20/15/15 29/11/11 28/46/41
f 15/39/35 1/17/16 18/50/44
f 18/51/44 20/15/15 19/48/43
f 41/27/25 43/43/38 4/23/21
f 19/48/43 28/46/41 27/31/29 16/30/28
f 21/8/8 3/10/10 20/15/15
f 13/40/36 15/39/35 17/52/42
f 16/30/28 13/42/36 17/47/42
f 17/47/42 18/51/44 19/48/43
f 17/52/42 15/39/35 18/50/44
f 15/39/35 10/41/37 5/33/31 1/17/16
f 33/25/23 30/53/45 31/13/13 32/4/4
f 2/9/9 6/7/7 3/10/10
f 30/53/45 33/25/23 4/23/21
f 18/50/44 1/17/16 21/16/8
f 20/15/15 18/51/44 21/8/8
f 30/53/45 4/23/21 45/44/39
f 37/22/20 35/21/19 34/3/3 36/24/22
f 32/4/4 34/3/3 35/21/19 33/25/23
f 38/36/33 40/35/32 41/27/25 39/26/24
f 39/26/24 37/22/20 36/24/22 38/36/33
f 45/44/39 43/43/38 42/45/40 44/14/14
f 43/43/38 41/27/25 40/35/32 42/45/40
f 22/12/12 23/1/1 32/4/4 31/13/13
f 30/53/45 45/44/39 44/14/14 31/13/13
f 10/41/37 8/37/34 5/33/31
f 8/38/34 11/19/17 9/6/6
