# Blender v3.4.1 OBJ File: 'Forest_Nature_Pack_Export.blend'
# www.blender.org
mtllib Rock_5_A_Color1.mtl
o Rock_5_A_Color1
v -0.056555 0.055513 0.056555
v -0.056555 0.055513 -0.056555
v 0.056555 0.055513 0.056555
v 0.056555 0.055513 -0.056555
v -0.000000 -0.001042 0.000000
v -0.068948 0.067906 -0.000000
v 0.000000 0.067906 -0.068948
v 0.068948 0.067906 0.000000
v -0.000000 0.067906 0.068948
v -0.000000 0.093915 -0.000000
v -0.068948 -0.001042 0.068948
v -0.094956 -0.001042 0.000000
v -0.068948 -0.001042 -0.068948
v -0.000000 -0.001042 -0.094956
v 0.068948 -0.001042 -0.068948
v 0.094956 -0.001042 -0.000000
v 0.068948 -0.001042 0.068948
v 0.000000 -0.001042 0.094956
vt 0.044719 0.338558
vt 0.045108 0.361146
vt 0.044719 0.362671
vt 0.043901 0.338558
vt 0.045108 0.361146
vt 0.044719 0.338558
vt 0.046886 0.362671
vt 0.046886 0.338558
vt 0.048666 0.361146
vt 0.049055 0.338558
vt 0.049055 0.362671
vt 0.049873 0.338558
vt 0.048666 0.361146
vt 0.049055 0.338558
vt 0.046886 0.362671
vt 0.046886 0.338558
vt 0.048666 0.376771
vt 0.046886 0.378296
vt 0.046886 0.381498
vt 0.049055 0.378296
vt 0.045108 0.376771
vt 0.044719 0.378296
vt 0.045108 0.376771
vt 0.046886 0.378296
vt 0.048666 0.376771
vt 0.044808 0.338558
vt 0.044024 0.338558
vt 0.046886 0.338558
vt 0.048966 0.338558
vt 0.049750 0.338558
vn -0.9015 0.3061 0.3061
vn -0.9469 0.3215 -0.0000
vn -0.9015 0.3061 -0.3061
vn -0.3061 0.3061 -0.9015
vn 0.0000 0.3215 -0.9469
vn 0.3061 0.3061 -0.9015
vn 0.9015 0.3061 -0.3061
vn 0.9469 0.3215 0.0000
vn 0.9015 0.3061 0.3061
vn 0.3061 0.3061 0.9015
vn 0.0000 0.3215 0.9469
vn -0.3061 0.3061 0.9015
vn 0.3061 0.9015 -0.3061
vn 0.0000 0.9469 -0.3215
vn 0.0000 1.0000 0.0000
vn 0.3215 0.9469 0.0000
vn -0.3061 0.9015 -0.3061
vn -0.3215 0.9469 0.0000
vn -0.3061 0.9015 0.3061
vn 0.0000 0.9469 0.3215
vn 0.3061 0.9015 0.3061
vn 0.0000 -1.0000 0.0000
usemtl forest
s 1
f 11/1/1 1/2/1 6/3/2 12/4/2
f 12/4/2 6/3/2 2/5/3 13/6/3
f 13/6/4 2/5/4 7/7/5 14/8/5
f 14/8/5 7/7/5 4/9/6 15/10/6
f 15/10/7 4/9/7 8/11/8 16/12/8
f 16/12/8 8/11/8 3/13/9 17/14/9
f 17/14/10 3/13/10 9/15/11 18/16/11
f 18/16/11 9/15/11 1/2/12 11/1/12
f 4/17/13 7/18/14 10/19/15 8/20/16
f 7/18/14 2/21/17 6/22/18 10/19/15
f 10/19/15 6/22/18 1/23/19 9/24/20
f 8/20/16 10/19/15 9/24/20 3/25/21
f 5/26/22 11/1/22 12/4/22
f 5/27/22 12/4/22 13/6/22
f 5/26/22 13/6/22 14/8/22
f 5/28/22 14/8/22 15/10/22
f 5/29/22 15/10/22 16/12/22
f 5/30/22 16/12/22 17/14/22
f 5/29/22 17/14/22 18/16/22
f 5/28/22 18/16/22 11/1/22
