# Blender v3.4.1 OBJ File: 'Forest_Nature_Pack_Export.blend'
# www.blender.org
mtllib Rock_4_G_Color1.mtl
o Rock_4_G_Color1
v 0.136425 0.000041 0.546351
v 0.222589 0.091796 0.595942
v 0.081440 0.090596 0.642844
v 0.198282 0.026998 0.584944
v 0.155080 0.038378 0.636926
v 0.158308 0.090332 0.653175
v 0.098022 0.026749 0.618109
v 0.176260 2.787393 0.364447
v 0.079509 2.935214 0.298043
v 0.026821 2.753172 0.411349
v 0.147502 2.873570 0.341561
v 0.102909 2.820502 0.395724
v 0.041079 2.848773 0.374725
v 0.108907 2.745634 0.421680
v -0.525832 0.000046 0.156901
v -0.558948 0.100400 0.259541
v -0.628030 0.104578 0.096211
v -0.552692 0.029656 0.230491
v -0.609052 0.043289 0.182911
v -0.623863 0.102241 0.187577
v -0.601088 0.030522 0.114999
v -0.291912 3.095652 0.085596
v -0.408391 3.031607 0.029734
v -0.347599 2.912438 0.193064
v -0.370651 3.095228 0.045109
v -0.384942 3.030477 0.113646
v -0.409442 2.964945 0.121100
v -0.328418 3.008875 0.160600
v 0.566843 0.000049 -0.156875
v 0.632910 0.113677 -0.259515
v 0.657631 0.109499 -0.096185
v 0.617170 0.033113 -0.230465
v 0.664772 0.047246 -0.182885
v 0.682460 0.111836 -0.187551
v 0.635102 0.032247 -0.114974
v 0.304148 3.224915 -0.085570
v 0.414280 3.074978 -0.029708
v 0.381269 3.194148 -0.193038
v 0.378773 3.162665 -0.045083
v 0.406479 3.199651 -0.113621
v 0.433891 3.141641 -0.121074
v 0.354677 3.249018 -0.160575
v -0.177344 0.000054 -0.546326
v -0.296459 0.122281 -0.595917
v -0.110948 0.123481 -0.642819
v -0.262667 0.035771 -0.584919
v -0.210707 0.052157 -0.636901
v -0.216812 0.123745 -0.653150
v -0.131943 0.036020 -0.618084
v -0.091653 3.385354 -0.298017
v -0.032617 3.353414 -0.411324
v -0.209838 3.319193 -0.364421
v -0.049108 3.409120 -0.374700
v -0.124353 3.409626 -0.395698
v -0.133262 3.360952 -0.421654
v -0.173669 3.384323 -0.341535
v 0.312476 0.000038 -0.211239
v 0.353434 0.109791 -0.106600
v 0.196670 0.111521 -0.174199
v 0.340154 0.032391 -0.134346
v 0.267471 0.046616 -0.124312
v 0.259279 0.109831 -0.108155
v 0.228923 0.032750 -0.182146
v 0.444256 2.859384 -0.273410
v 0.411023 3.052435 -0.391906
v 0.282449 2.902741 -0.341010
v 0.436361 2.964767 -0.310955
v 0.359568 2.942084 -0.299123
v 0.321355 2.996290 -0.358755
v 0.346464 2.860381 -0.274966
v 0.109570 0.000042 -0.728112
v -0.013149 0.124485 -0.680917
v 0.067546 0.128472 -0.836761
v 0.019172 0.036603 -0.695999
v 0.007576 0.053556 -0.765817
v -0.011555 0.126836 -0.772826
v 0.076613 0.037430 -0.806197
v 0.316540 3.224403 -0.649745
v 0.263854 3.174299 -0.764405
v 0.178116 3.074343 -0.608561
v 0.282837 3.240844 -0.729591
v 0.211094 3.198551 -0.689991
v 0.183347 3.133291 -0.700470
v 0.221620 3.168172 -0.619393
v 0.895162 0.000040 -0.415369
v 1.020551 0.118898 -0.462563
v 0.913774 0.114911 -0.306719
v 0.986526 0.034740 -0.447482
v 0.982596 0.049357 -0.377663
v 0.998675 0.116547 -0.370655
v 0.911404 0.033913 -0.337283
v 0.708429 3.120351 -0.493735
v 0.746573 2.927155 -0.379075
v 0.848307 3.027111 -0.534919
v 0.732768 3.032649 -0.413889
v 0.805172 3.043371 -0.453489
v 0.830068 2.968162 -0.443011
v 0.804114 3.105321 -0.524087
v 0.746139 0.000044 -0.932241
v 0.702509 0.133592 -1.036881
v 0.885355 0.131862 -0.969281
v 0.717494 0.038952 -1.009134
v 0.805703 0.056297 -1.019168
v 0.816947 0.133552 -1.035325
v 0.846405 0.038593 -0.961334
v 0.627354 3.292318 -0.751574
v 0.770469 3.198713 -0.802471
v 0.592667 3.242069 -0.870070
v 0.726386 3.277203 -0.784726
v 0.687512 3.299838 -0.844358
v 0.703468 3.241072 -0.868515
v 0.601251 3.308725 -0.832526
v 0.778956 0.000018 -0.032582
v 0.798424 0.042795 0.005795
v 0.734535 0.042939 -0.008248
v 0.835068 1.637183 -0.084312
v 0.816700 1.697442 -0.126368
v 0.769813 1.642568 -0.098355
v 0.654592 0.000019 -0.276728
v 0.610020 0.045416 -0.250135
v 0.634265 0.046097 -0.316575
v 0.751228 1.748839 -0.256905
v 0.728094 1.718952 -0.297530
v 0.702483 1.693472 -0.231090
v 1.063634 0.000018 -0.191529
v 1.110474 0.045088 -0.218122
v 1.079165 0.044408 -0.151681
v 0.969929 1.730903 -0.211352
v 0.990121 1.670323 -0.170727
v 1.020064 1.695803 -0.237167
v 0.947477 0.000019 -0.435675
v 0.925741 0.047709 -0.474051
v 0.996695 0.047565 -0.460008
v 0.906803 1.782300 -0.341888
v 0.956631 1.746706 -0.369902
v 0.887044 1.752092 -0.383945
v 0.145036 0.000013 1.017122
v 0.163164 0.032046 1.055498
v 0.113991 0.032189 1.041456
v 0.182514 1.028576 0.965392
v 0.164779 1.075398 0.923336
v 0.131974 1.033062 0.951349
v 0.026627 0.000014 0.772976
v -0.004625 0.034667 0.799569
v 0.006867 0.035347 0.733129
v 0.102491 1.118440 0.792799
v 0.080740 1.096698 0.752174
v 0.067881 1.075471 0.818614
v 0.346392 0.000014 0.858175
v 0.379911 0.034339 0.831582
v 0.361354 0.033658 0.898022
v 0.273459 1.103420 0.838352
v 0.292268 1.056185 0.878977
v 0.309458 1.077412 0.812537
v 0.236190 0.000015 0.614029
v 0.215793 0.036960 0.575653
v 0.272032 0.036816 0.589696
v 0.213516 1.146462 0.707815
v 0.249262 1.119821 0.679802
v 0.194391 1.124307 0.665759
v 0.373996 0.000000 0.640379
v 0.407922 0.643513 0.593855
v 0.363664 0.000000 0.372580
v 0.402444 0.677107 0.406395
v 0.607996 0.000000 0.598017
v 0.573477 0.648827 0.564202
v 0.614372 0.000000 0.330218
v 0.576185 0.682421 0.376742
vt 0.060417 0.326166
vt 0.054589 0.418244
vt 0.039169 0.418244
vt 0.033340 0.326166
vt 0.064531 0.326166
vt 0.058700 0.418244
vt 0.058700 0.418244
vt 0.064531 0.326166
vt 0.054384 0.432372
vt 0.039374 0.432372
vt 0.039374 0.432372
vt 0.054384 0.432372
vt 0.029226 0.326166
vt 0.035057 0.418244
vt 0.035057 0.418244
vt 0.029226 0.326166
vt 0.033340 0.326166
vt 0.039169 0.418244
vt 0.054589 0.418244
vt 0.060417 0.326166
vt 0.033122 0.314255
vt 0.033188 0.324089
vt 0.030841 0.324470
vt 0.030279 0.324089
vt 0.030433 0.326166
vt 0.039169 0.429435
vt 0.039317 0.431512
vt 0.036915 0.431131
vt 0.036264 0.429435
vt 0.036408 0.431512
vt 0.035057 0.429435
vt 0.033122 0.314255
vt 0.030279 0.324089
vt 0.030841 0.324470
vt 0.033188 0.324089
vt 0.030433 0.326166
vt 0.039317 0.431512
vt 0.036915 0.431131
vt 0.036408 0.431512
vt 0.039169 0.429435
vt 0.036264 0.429435
vt 0.035057 0.429435
vt 0.060636 0.314255
vt 0.063478 0.324089
vt 0.062916 0.324470
vt 0.060569 0.324089
vt 0.063324 0.326166
vt 0.054441 0.431512
vt 0.056843 0.431131
vt 0.057349 0.431512
vt 0.054589 0.429435
vt 0.057494 0.429435
vt 0.058700 0.429435
vt 0.060636 0.314255
vt 0.060569 0.324089
vt 0.062916 0.324470
vt 0.063478 0.324089
vt 0.063324 0.326166
vt 0.057349 0.431512
vt 0.056843 0.431131
vt 0.054441 0.431512
vt 0.058700 0.429435
vt 0.057494 0.429435
vt 0.054589 0.429435
vt 0.036264 0.418244
vt 0.036264 0.418244
vt 0.057494 0.418244
vt 0.057494 0.418244
vt 0.056201 0.329107
vt 0.051801 0.411047
vt 0.041956 0.411047
vt 0.037556 0.329107
vt 0.060311 0.329107
vt 0.055913 0.411047
vt 0.055913 0.411047
vt 0.060311 0.329107
vt 0.051621 0.425176
vt 0.042136 0.425176
vt 0.042136 0.425176
vt 0.051621 0.425176
vt 0.033446 0.329107
vt 0.037844 0.411047
vt 0.037844 0.411047
vt 0.033446 0.329107
vt 0.037556 0.329107
vt 0.041956 0.411047
vt 0.051801 0.411047
vt 0.056201 0.329107
vt 0.037368 0.314255
vt 0.037423 0.327030
vt 0.035078 0.327411
vt 0.034518 0.327030
vt 0.034649 0.329107
vt 0.041956 0.422238
vt 0.042083 0.424315
vt 0.039687 0.423934
vt 0.039051 0.422238
vt 0.039176 0.424315
vt 0.037844 0.422238
vt 0.037368 0.314255
vt 0.034518 0.327030
vt 0.035078 0.327411
vt 0.037423 0.327030
vt 0.034649 0.329107
vt 0.042083 0.424315
vt 0.039687 0.423934
vt 0.039176 0.424315
vt 0.041956 0.422238
vt 0.039051 0.422238
vt 0.037844 0.422238
vt 0.056389 0.314255
vt 0.059239 0.327030
vt 0.058679 0.327411
vt 0.056334 0.327030
vt 0.059108 0.329107
vt 0.051674 0.424315
vt 0.054071 0.423934
vt 0.054581 0.424315
vt 0.051801 0.422238
vt 0.054706 0.422238
vt 0.055913 0.422238
vt 0.056389 0.314255
vt 0.056334 0.327030
vt 0.058679 0.327411
vt 0.059239 0.327030
vt 0.059108 0.329107
vt 0.054581 0.424315
vt 0.054071 0.423934
vt 0.051674 0.424315
vt 0.055913 0.422238
vt 0.054706 0.422238
vt 0.051801 0.422238
vt 0.039051 0.411047
vt 0.039051 0.411047
vt 0.054706 0.411047
vt 0.054706 0.411047
vt 0.051817 0.330286
vt 0.049589 0.399067
vt 0.044168 0.399067
vt 0.041941 0.330286
vt 0.053462 0.330286
vt 0.051232 0.399067
vt 0.051232 0.399067
vt 0.053462 0.330286
vt 0.049544 0.411433
vt 0.044214 0.411433
vt 0.044214 0.411433
vt 0.049544 0.411433
vt 0.040296 0.330286
vt 0.042525 0.399067
vt 0.042525 0.399067
vt 0.040296 0.330286
vt 0.041941 0.330286
vt 0.044168 0.399067
vt 0.049589 0.399067
vt 0.051817 0.330286
vt 0.041893 0.314255
vt 0.044168 0.410257
vt 0.042525 0.410257
vt 0.041893 0.314255
vt 0.044168 0.410257
vt 0.042525 0.410257
vt 0.051864 0.314255
vt 0.049589 0.410257
vt 0.051232 0.410257
vt 0.051864 0.314255
vt 0.051232 0.410257
vt 0.049589 0.410257
vt 0.051817 0.330286
vt 0.049589 0.399067
vt 0.044168 0.399067
vt 0.041941 0.330286
vt 0.053462 0.330286
vt 0.051232 0.399067
vt 0.051232 0.399067
vt 0.053462 0.330286
vt 0.049544 0.411433
vt 0.044214 0.411433
vt 0.044214 0.411433
vt 0.049544 0.411433
vt 0.040296 0.330286
vt 0.042525 0.399067
vt 0.042525 0.399067
vt 0.040296 0.330286
vt 0.041941 0.330286
vt 0.044168 0.399067
vt 0.049589 0.399067
vt 0.051817 0.330286
vt 0.041893 0.314255
vt 0.044168 0.410257
vt 0.042525 0.410257
vt 0.041893 0.314255
vt 0.044168 0.410257
vt 0.042525 0.410257
vt 0.051864 0.314255
vt 0.049589 0.410257
vt 0.051232 0.410257
vt 0.051864 0.314255
vt 0.051232 0.410257
vt 0.049589 0.410257
vt 0.042239 0.314255
vt 0.043629 0.378537
vt 0.043629 0.378537
vt 0.042239 0.314255
vt 0.050128 0.378537
vt 0.051519 0.314255
vt 0.050128 0.378537
vt 0.051519 0.314255
vt 0.050128 0.389727
vt 0.043629 0.389727
vt 0.043629 0.389727
vt 0.050128 0.389727
vn 0.9041 -0.1323 0.4063
vn 0.8407 0.2251 0.4925
vn 0.6858 0.2097 0.6970
vn 0.7578 -0.1382 0.6376
vn 0.2953 -0.1267 -0.9470
vn 0.3504 0.3395 -0.8729
vn 0.7008 0.3227 -0.6361
vn 0.6483 -0.1348 -0.7494
vn -0.0556 0.8957 0.4412
vn -0.1701 0.7698 0.6152
vn 0.0484 0.7211 0.6912
vn 0.1781 0.8182 0.5466
vn -0.3344 -0.1521 0.9301
vn -0.2929 0.2035 0.9342
vn -0.5533 0.2085 0.8065
vn -0.6159 -0.1420 0.7750
vn -0.9662 -0.1432 -0.2145
vn -0.9608 0.2646 -0.0831
vn -0.8230 0.3118 -0.4748
vn -0.7726 -0.1380 -0.6197
vn 0.0635 -0.9754 0.2111
vn 0.2196 -0.9356 0.2764
vn 0.1231 -0.9228 0.3652
vn -0.0279 -0.9437 0.3295
vn 0.6641 -0.1158 0.7387
vn 0.6620 -0.3149 0.6801
vn 0.7321 -0.3417 0.5893
vn -0.3290 -0.3762 0.8662
vn -0.1714 -0.3462 0.9224
vn -0.1511 -0.1300 0.9799
vn 0.3840 0.5467 0.7441
vn 0.1835 0.4500 0.8740
vn 0.2563 0.2002 0.9456
vn -0.1362 0.5263 0.8393
vn -0.2287 -0.9708 0.0720
vn -0.2785 -0.9306 0.2377
vn -0.4132 -0.8953 0.1664
vn -0.3600 -0.9328 -0.0140
vn -0.9206 -0.1159 0.3729
vn -0.8800 -0.3131 0.3571
vn -0.5927 -0.3407 0.7298
vn -0.9142 -0.3509 -0.2028
vn -0.6474 0.6888 0.3263
vn -0.6415 0.5325 0.5522
vn -0.3431 0.5369 0.7707
vn -0.8658 0.2224 0.4482
vn 0.2269 -0.9720 -0.0604
vn 0.2991 -0.9324 -0.2031
vn 0.4175 -0.9058 -0.0716
vn 0.3658 -0.9287 0.0601
vn 0.8064 -0.1151 -0.5801
vn 0.7535 -0.3084 -0.5806
vn 0.5979 -0.3418 -0.7250
vn 0.8597 -0.3290 0.3907
vn 0.9153 -0.2876 0.2819
vn 0.9559 -0.1002 0.2759
vn 0.5338 0.5879 0.6078
vn 0.5470 0.6510 0.5263
vn 0.2418 0.8602 0.4490
vn 0.8693 0.2747 0.4110
vn 0.6583 0.5648 -0.4976
vn 0.8176 0.4951 -0.2939
vn 0.8460 0.2122 -0.4892
vn -0.0676 -0.9674 -0.2440
vn -0.2252 -0.9270 -0.2998
vn -0.1158 -0.8788 -0.4629
vn 0.0415 -0.9179 -0.3946
vn -0.2673 -0.1041 -0.9580
vn -0.2478 -0.2900 -0.9244
vn -0.7264 -0.3420 -0.5962
vn 0.2788 -0.3126 -0.9081
vn 0.0293 0.9410 0.3371
vn -0.1164 0.9541 0.2761
vn -0.1977 0.8971 0.3952
vn -0.3056 0.3523 -0.8846
vn 0.1730 0.5157 -0.8391
vn 0.3477 0.5614 -0.7509
vn -0.7841 0.5145 -0.3472
vn -0.7085 0.4961 -0.5020
vn 0.4579 -0.1342 0.8788
vn 0.4179 0.1825 0.8900
vn 0.1527 0.1798 0.9718
vn 0.1712 -0.1396 0.9753
vn 0.8623 -0.1480 -0.4844
vn 0.8894 0.2892 -0.3539
vn 0.9671 0.2428 0.0755
vn 0.9880 -0.1508 -0.0330
vn 0.0819 0.9263 0.3679
vn -0.1830 0.8761 0.4461
vn -0.0737 0.7504 0.6569
vn 0.1661 0.7819 0.6008
vn -0.8351 -0.1475 0.5299
vn -0.7752 0.2098 0.5958
vn -0.9265 0.2358 0.2931
vn -0.9700 -0.1449 0.1954
vn -0.4628 -0.1247 -0.8776
vn -0.5063 0.2752 -0.8173
vn -0.1806 0.2790 -0.9432
vn -0.1550 -0.1200 -0.9806
vn -0.0926 -0.9705 0.2225
vn -0.0163 -0.9247 0.3803
vn -0.1724 -0.9026 0.3944
vn -0.2587 -0.9318 0.2547
vn -0.3978 -0.1301 0.9082
vn 0.0229 -0.2987 0.9541
vn 0.1725 -0.3311 0.9277
vn -0.7989 -0.3495 0.4894
vn -0.7211 -0.3106 0.6193
vn 0.0642 0.5164 0.8539
vn -0.2646 0.4509 0.8524
vn -0.3636 0.1854 0.9129
vn -0.4577 0.5756 0.6776
vn -0.2146 -0.9686 -0.1253
vn -0.3650 -0.9301 -0.0405
vn -0.3919 -0.8955 -0.2110
vn -0.2643 -0.9143 -0.3069
vn -0.9934 -0.1150 0.0029
vn -0.9521 -0.3051 0.0225
vn -0.9170 -0.3492 0.1930
vn -0.4283 -0.3023 -0.8516
vn -0.5714 -0.2749 -0.7733
vn -0.6122 -0.1052 -0.7836
vn -0.2374 0.9214 0.3076
vn -0.6064 0.7176 0.3425
vn -0.6089 0.6440 0.4631
vn -0.6544 0.1921 -0.7313
vn -0.6571 0.4426 -0.6102
vn -0.4819 0.4860 -0.7291
vn -0.9436 0.2895 0.1606
vn 0.2159 -0.9677 0.1301
vn 0.3605 -0.9308 0.0603
vn 0.3879 -0.8849 0.2578
vn 0.2463 -0.9159 0.3169
vn 0.8351 -0.1196 0.5369
vn 0.7984 -0.3055 0.5188
vn 0.9339 -0.3560 -0.0330
vn 0.4421 -0.3139 0.8403
vn 0.2773 0.5228 0.8061
vn 0.5911 0.4999 0.6330
vn 0.6398 0.6629 0.3890
vn 0.7849 0.1973 0.5873
vn 0.0965 -0.9654 -0.2421
vn 0.0118 -0.9034 -0.4286
vn 0.1656 -0.8758 -0.4533
vn 0.2577 -0.9284 -0.2678
vn 0.3923 -0.1127 -0.9129
vn -0.0194 -0.2478 -0.9686
vn -0.1535 -0.2872 -0.9455
vn 0.8129 -0.3570 -0.4602
vn 0.6931 -0.2969 -0.6569
vn 0.2363 0.9066 0.3497
vn 0.1712 0.9669 0.1894
vn 0.0139 0.9752 0.2207
vn 0.4359 0.3110 -0.8446
vn 0.7801 0.4680 -0.4152
vn 0.8380 0.4866 -0.2470
vn -0.1900 0.4778 -0.8577
vn -0.0247 0.4401 -0.8976
vn 0.6839 -0.3150 0.6581
vn 0.6406 0.3139 0.7008
vn 0.1410 0.2945 0.9452
vn 0.1515 -0.3212 0.9348
vn 0.9055 0.0442 -0.4220
vn 0.3111 0.9262 0.2129
vn -0.4290 0.8964 0.1117
vn -0.0987 0.7573 0.6455
vn 0.3967 0.8157 0.4210
vn -0.8866 0.0449 0.4604
vn -0.5519 0.3235 0.7686
vn -0.9047 0.3892 0.1735
vn -0.7089 -0.3110 -0.6331
vn -0.7198 0.4394 -0.5373
vn -0.1431 0.0494 -0.9885
vn -0.1540 -0.3092 -0.9385
vn -0.1084 -0.8863 0.4503
vn -0.4011 -0.4796 0.7805
vn -0.4469 -0.8784 -0.1696
vn -0.8761 -0.4734 -0.0914
vn 0.4454 -0.8779 0.1758
vn 0.8669 -0.4761 0.1475
vn 0.7793 0.5325 0.3305
vn 0.1119 -0.8797 -0.4621
vn 0.3961 -0.4731 -0.7870
vn -0.1419 0.8374 -0.5278
vn 0.1854 0.7548 -0.6292
vn -0.1676 0.8396 -0.5167
vn 0.1978 0.0564 -0.9786
vn 0.5883 0.8081 0.0312
vn 0.7672 -0.3480 0.5388
vn 0.7205 0.3711 0.5858
vn 0.1845 0.3521 0.9176
vn 0.6165 0.0576 0.7853
vn 0.9135 0.0535 -0.4034
vn 0.9096 0.4154 -0.0064
vn 0.9353 -0.3407 -0.0959
vn 0.0971 0.9869 -0.1286
vn -0.4256 0.8911 0.1576
vn -0.0943 0.8085 0.5809
vn 0.4083 0.8474 0.3393
vn -0.8948 0.0551 0.4430
vn -0.5703 0.3624 0.7372
vn -0.8867 0.3968 0.2375
vn -0.9284 -0.3384 0.1533
vn -0.7887 -0.3410 -0.5115
vn -0.7805 0.4671 -0.4155
vn -0.6054 0.0551 -0.7940
vn -0.1024 -0.9140 0.3925
vn 0.1497 -0.7862 0.5996
vn -0.4328 -0.7663 0.4748
vn -0.4507 -0.8871 -0.0997
vn 0.4494 -0.8869 0.1072
vn 0.1055 -0.9061 -0.4096
vn -0.1563 -0.7582 -0.6330
vn 0.4374 -0.7567 -0.4859
vn 0.4615 0.8592 -0.2209
vn -0.1706 0.9045 -0.3909
vn -0.2660 0.0916 0.9596
vn 0.2475 0.0852 -0.9651
vn -0.9977 0.0553 0.0387
vn -0.1677 0.0582 -0.9841
vn 0.9982 0.0543 0.0239
vn 0.1763 0.0612 0.9824
vn -0.0000 0.9843 0.1764
vn 0.0000 -1.0000 0.0000
usemtl forest
s 1
f 31/1/1 37/2/2 8/3/3 2/4/4
f 45/5/5 51/6/6 38/7/7 30/8/8
f 50/9/9 22/10/10 9/11/11 36/12/12
f 3/13/13 10/14/14 24/15/15 16/16/16
f 17/17/17 23/18/18 52/19/19 44/20/20
f 1/21/21 4/22/22 5/23/23 7/24/24
f 2/4/4 6/25/25 5/23/26 4/22/27
f 3/13/13 7/24/28 5/23/29 6/25/30
f 8/26/3 11/27/31 12/28/32 14/29/33
f 9/11/11 13/30/34 12/28/32 11/27/31
f 10/31/14 14/29/33 12/28/32 13/30/34
f 15/32/35 18/33/36 19/34/37 21/35/38
f 16/16/16 20/36/39 19/34/40 18/33/41
f 17/17/17 21/35/42 19/34/40 20/36/39
f 22/10/10 25/37/43 26/38/44 28/39/45
f 23/40/18 27/41/46 26/38/44 25/37/43
f 24/42/15 28/39/45 26/38/44 27/41/46
f 29/43/47 32/44/48 33/45/49 35/46/50
f 30/8/8 34/47/51 33/45/52 32/44/53
f 31/1/1 35/46/54 33/45/55 34/47/56
f 36/12/12 39/48/57 40/49/58 42/50/59
f 37/51/2 41/52/60 40/49/58 39/48/57
f 38/53/7 42/50/61 40/49/62 41/52/63
f 43/54/64 46/55/65 47/56/66 49/57/67
f 44/20/20 48/58/68 47/56/69 46/55/70
f 45/5/5 49/57/71 47/56/69 48/58/68
f 50/9/9 53/59/72 54/60/73 56/61/74
f 51/62/6 55/63/75 54/60/76 53/59/77
f 52/64/19 56/61/78 54/60/79 55/63/75
f 15/32/35 1/21/21 7/24/24 18/33/36
f 18/33/41 7/24/28 3/13/13 16/16/16
f 2/4/4 8/3/3 14/65/33 6/25/25
f 6/25/30 14/65/33 10/14/14 3/13/13
f 9/11/11 22/10/10 28/39/45 13/30/34
f 13/30/34 28/39/45 24/42/15 10/31/14
f 23/18/18 17/17/17 20/36/39 27/66/46
f 27/66/46 20/36/39 16/16/16 24/15/15
f 43/54/64 15/32/35 21/35/38 46/55/65
f 46/55/70 21/35/42 17/17/17 44/20/20
f 22/10/10 50/9/9 56/61/74 25/37/43
f 25/37/43 56/61/78 52/64/19 23/40/18
f 51/6/6 45/5/5 48/58/68 55/67/75
f 55/67/75 48/58/68 44/20/20 52/19/19
f 29/43/47 43/54/64 49/57/67 32/44/48
f 32/44/53 49/57/71 45/5/5 30/8/8
f 50/9/9 36/12/12 42/50/59 53/59/72
f 53/59/77 42/50/61 38/53/7 51/62/6
f 37/2/2 31/1/1 34/47/56 41/68/60
f 41/68/63 34/47/51 30/8/8 38/7/7
f 1/21/21 29/43/47 35/46/50 4/22/22
f 4/22/27 35/46/54 31/1/1 2/4/4
f 36/12/12 9/11/11 11/27/31 39/48/57
f 39/48/57 11/27/31 8/26/3 37/51/2
f 87/69/80 93/70/81 64/71/82 58/72/83
f 101/73/84 107/74/85 94/75/86 86/76/87
f 106/77/88 78/78/89 65/79/90 92/80/91
f 59/81/92 66/82/93 80/83/94 72/84/95
f 73/85/96 79/86/97 108/87/98 100/88/99
f 57/89/100 60/90/101 61/91/102 63/92/103
f 58/72/83 62/93/104 61/91/105 60/90/106
f 59/81/92 63/92/107 61/91/108 62/93/104
f 64/94/82 67/95/109 68/96/110 70/97/111
f 65/79/90 69/98/112 68/96/110 67/95/109
f 66/99/93 70/97/111 68/96/110 69/98/112
f 71/100/113 74/101/114 75/102/115 77/103/116
f 72/84/95 76/104/117 75/102/118 74/101/119
f 73/85/96 77/103/120 75/102/121 76/104/122
f 78/78/89 81/105/123 82/106/124 84/107/125
f 79/108/97 83/109/126 82/106/127 81/105/128
f 80/110/94 84/107/125 82/106/124 83/109/129
f 85/111/130 88/112/131 89/113/132 91/114/133
f 86/76/87 90/115/134 89/113/135 88/112/136
f 87/69/80 91/114/137 89/113/135 90/115/134
f 92/80/91 95/116/138 96/117/139 98/118/140
f 93/119/81 97/120/141 96/117/139 95/116/138
f 94/121/86 98/118/140 96/117/139 97/120/141
f 99/122/142 102/123/143 103/124/144 105/125/145
f 100/88/99 104/126/146 103/124/147 102/123/148
f 101/73/84 105/125/149 103/124/150 104/126/146
f 106/77/88 109/127/151 110/128/152 112/129/153
f 107/130/85 111/131/154 110/128/155 109/127/156
f 108/132/98 112/129/157 110/128/158 111/131/154
f 71/100/113 57/89/100 63/92/103 74/101/114
f 74/101/119 63/92/107 59/81/92 72/84/95
f 58/72/83 64/71/82 70/133/111 62/93/104
f 62/93/104 70/133/111 66/82/93 59/81/92
f 65/79/90 78/78/89 84/107/125 69/98/112
f 69/98/112 84/107/125 80/110/94 66/99/93
f 79/86/97 73/85/96 76/104/122 83/134/126
f 83/134/129 76/104/117 72/84/95 80/83/94
f 99/122/142 71/100/113 77/103/116 102/123/143
f 102/123/148 77/103/120 73/85/96 100/88/99
f 78/78/89 106/77/88 112/129/153 81/105/123
f 81/105/128 112/129/157 108/132/98 79/108/97
f 107/74/85 101/73/84 104/126/146 111/135/154
f 111/135/154 104/126/146 100/88/99 108/87/98
f 85/111/130 99/122/142 105/125/145 88/112/131
f 88/112/136 105/125/149 101/73/84 86/76/87
f 106/77/88 92/80/91 98/118/140 109/127/151
f 109/127/156 98/118/140 94/121/86 107/130/85
f 93/70/81 87/69/80 90/115/134 97/136/141
f 97/136/141 90/115/134 86/76/87 94/75/86
f 57/89/100 85/111/130 91/114/133 60/90/101
f 60/90/106 91/114/137 87/69/80 58/72/83
f 92/80/91 65/79/90 67/95/109 95/116/138
f 95/116/138 67/95/109 64/94/82 93/119/81
f 127/137/159 129/138/160 116/139/161 114/140/162
f 133/141/163 135/142/163 130/143/163 126/144/163
f 134/145/164 122/146/165 117/147/166 128/148/167
f 115/149/168 118/150/169 124/151/170 120/152/168
f 121/153/171 123/154/172 136/155/173 132/156/174
f 113/157/175 114/140/162 115/149/176
f 116/158/161 117/147/166 118/159/169
f 119/160/177 120/152/178 121/153/171
f 122/146/165 123/161/172 124/162/170
f 125/163/179 126/144/180 127/137/159
f 128/148/167 129/164/160 130/165/181
f 131/166/182 132/156/174 133/141/183
f 134/145/184 135/167/185 136/168/186
f 119/160/177 113/157/175 115/149/176 120/152/178
f 114/140/162 116/139/161 118/150/169 115/149/176
f 117/147/166 122/146/165 124/162/170 118/159/169
f 123/154/172 121/153/171 120/152/178 124/151/170
f 131/166/182 119/160/177 121/153/171 132/156/174
f 122/146/165 134/145/184 136/168/186 123/161/172
f 135/142/187 133/141/183 132/156/174 136/155/173
f 125/163/179 131/166/182 133/141/183 126/144/180
f 134/145/164 128/148/167 130/165/181 135/167/188
f 129/138/160 127/137/159 126/144/180 130/143/181
f 113/157/175 125/163/179 127/137/159 114/140/162
f 128/148/167 117/147/166 116/158/161 129/164/160
f 151/169/189 153/170/190 140/171/191 138/172/192
f 157/173/193 159/174/193 154/175/194 150/176/195
f 158/177/196 146/178/197 141/179/198 152/180/199
f 139/181/200 142/182/201 148/183/202 144/184/203
f 145/185/204 147/186/205 160/187/206 156/188/206
f 137/189/207 138/172/208 139/181/209
f 140/190/191 141/179/198 142/191/201
f 143/192/210 144/184/203 145/185/204
f 146/178/197 147/193/205 148/194/202
f 149/195/211 150/176/195 151/169/189
f 152/180/199 153/196/190 154/197/194
f 155/198/212 156/188/213 157/173/214
f 158/177/196 159/199/215 160/200/216
f 143/192/210 137/189/207 139/181/209 144/184/203
f 138/172/217 140/171/191 142/182/201 139/181/217
f 141/179/198 146/178/197 148/194/202 142/191/201
f 147/186/205 145/185/204 144/184/203 148/183/202
f 155/198/212 143/192/210 145/185/204 156/188/213
f 146/178/197 158/177/196 160/200/216 147/193/205
f 159/174/218 157/173/218 156/188/218 160/187/218
f 149/195/211 155/198/212 157/173/214 150/176/195
f 158/177/196 152/180/199 154/197/194 159/199/215
f 153/170/190 151/169/189 150/176/195 154/175/194
f 137/189/207 149/195/211 151/169/189 138/172/208
f 152/180/199 141/179/198 140/190/191 153/196/190
f 161/201/219 162/202/219 164/203/219 163/204/219
f 163/204/220 164/203/220 168/205/220 167/206/220
f 167/206/221 168/205/221 166/207/221 165/208/221
f 165/208/222 166/207/222 162/202/222 161/201/222
f 168/209/223 164/210/223 162/211/223 166/212/223
f 143/192/210 155/198/212 149/195/211 137/189/207
f 163/204/224 167/206/224 165/208/224 161/201/224
f 15/32/35 43/54/64 29/43/47 1/21/21
f 71/100/113 99/122/142 85/111/130 57/89/100
f 119/160/177 131/166/182 125/163/179 113/157/175
