# Blender v3.4.1 OBJ File: 'Forest_Nature_Pack_Export.blend'
# www.blender.org
mtllib Rock_4_D_Color1.mtl
o Rock_4_D_Color1
v 0.568441 0.000047 -0.000019
v 0.664579 0.110385 -0.084984
v 0.624292 0.103694 0.084947
v 0.639680 0.032078 -0.060098
v 0.662677 0.045268 -0.000019
v 0.679583 0.107040 -0.000019
v 0.612014 0.030691 0.060061
v 0.416198 3.148762 -0.084984
v 0.310096 3.160315 -0.000019
v 0.390968 2.957885 0.084947
v 0.380861 3.198136 -0.060098
v 0.411725 3.115095 -0.000019
v 0.364389 3.059820 0.060061
v 0.438731 3.053323 -0.000019
v 0.000015 0.000037 0.568400
v 0.064838 0.081664 0.644394
v -0.064809 0.081664 0.644394
v 0.046262 0.024159 0.625805
v 0.000014 0.034232 0.662635
v 0.000014 0.080280 0.679541
v -0.046233 0.024159 0.625805
v 0.000017 2.799814 0.310056
v -0.072336 2.600017 0.403543
v 0.072368 2.600017 0.403543
v -0.051828 2.700075 0.372585
v 0.000016 2.643287 0.411685
v 0.000016 2.560537 0.438690
v 0.051861 2.700075 0.372585
v 0.000023 0.000057 -0.568437
v -0.105086 0.132415 -0.644431
v 0.105132 0.132415 -0.644431
v -0.073889 0.038610 -0.625843
v 0.000023 0.056303 -0.662673
v 0.000023 0.133799 -0.679578
v 0.073935 0.038610 -0.625843
v 0.000021 3.520817 -0.310094
v 0.097602 3.506630 -0.403580
v -0.097559 3.506630 -0.403580
v 0.068337 3.557881 -0.372623
v 0.000022 3.586904 -0.411723
v 0.000022 3.546109 -0.438728
v -0.068294 3.557881 -0.372623
v -0.568404 0.000047 -0.000019
v -0.624256 0.103694 0.084947
v -0.664540 0.110385 -0.084984
v -0.611978 0.030691 0.060061
v -0.662640 0.045268 -0.000019
v -0.679546 0.107040 -0.000019
v -0.639641 0.032078 -0.060098
v -0.310059 3.160315 -0.000019
v -0.416159 3.148762 -0.084984
v -0.390932 2.957885 0.084947
v -0.380823 3.198136 -0.060098
v -0.411688 3.115095 -0.000019
v -0.438693 3.053323 -0.000019
v -0.364353 3.059820 0.060061
vt 0.060417 0.326166
vt 0.054589 0.418244
vt 0.039169 0.418244
vt 0.033340 0.326166
vt 0.064531 0.326166
vt 0.058700 0.418244
vt 0.058700 0.418244
vt 0.064531 0.326166
vt 0.054384 0.432372
vt 0.039374 0.432372
vt 0.039374 0.432372
vt 0.054384 0.432372
vt 0.029226 0.326166
vt 0.035057 0.418244
vt 0.035057 0.418244
vt 0.029226 0.326166
vt 0.033340 0.326166
vt 0.039169 0.418244
vt 0.054589 0.418244
vt 0.060417 0.326166
vt 0.033122 0.323228
vt 0.033188 0.324089
vt 0.030841 0.324470
vt 0.030279 0.324089
vt 0.030433 0.326166
vt 0.039169 0.429435
vt 0.039317 0.431512
vt 0.036915 0.431131
vt 0.036264 0.429435
vt 0.036408 0.431512
vt 0.035057 0.429435
vt 0.033122 0.323228
vt 0.030279 0.324089
vt 0.030841 0.324470
vt 0.033188 0.324089
vt 0.030433 0.326166
vt 0.039317 0.431512
vt 0.036915 0.431131
vt 0.036408 0.431512
vt 0.039169 0.429435
vt 0.036264 0.429435
vt 0.035057 0.429435
vt 0.060636 0.323228
vt 0.063478 0.324089
vt 0.062916 0.324470
vt 0.060569 0.324089
vt 0.063324 0.326166
vt 0.054441 0.431512
vt 0.056843 0.431131
vt 0.057349 0.431512
vt 0.054589 0.429435
vt 0.057494 0.429435
vt 0.058700 0.429435
vt 0.060636 0.323228
vt 0.060569 0.324089
vt 0.062916 0.324470
vt 0.063478 0.324089
vt 0.063324 0.326166
vt 0.057349 0.431512
vt 0.056843 0.431131
vt 0.054441 0.431512
vt 0.058700 0.429435
vt 0.057494 0.429435
vt 0.054589 0.429435
vt 0.036264 0.418244
vt 0.036264 0.418244
vt 0.057494 0.418244
vt 0.057494 0.418244
vn 0.5413 -0.1306 -0.8306
vn 0.6672 0.3748 -0.6437
vn 0.9144 0.3058 -0.2652
vn 0.8708 -0.1424 -0.4706
vn -0.8708 -0.1424 -0.4706
vn -0.9144 0.3058 -0.2652
vn -0.6672 0.3748 -0.6437
vn -0.5413 -0.1306 -0.8306
vn -0.1473 0.6500 0.7455
vn 0.0000 0.5878 0.8090
vn 0.1473 0.6500 0.7455
vn 0.0000 0.7526 0.6585
vn 0.7626 -0.1329 0.6331
vn 0.6700 0.1966 0.7158
vn 0.5006 0.1899 0.8446
vn 0.5882 -0.1488 0.7949
vn -0.5882 -0.1488 0.7949
vn -0.5006 0.1899 0.8446
vn -0.6700 0.1966 0.7158
vn -0.7626 -0.1329 0.6331
vn 0.2374 -0.9714 0.0107
vn 0.3411 -0.9353 -0.0944
vn 0.4309 -0.8980 0.0888
vn 0.3347 -0.9258 0.1755
vn 0.9758 -0.1175 0.1843
vn 0.9232 -0.3147 -0.2205
vn 0.8140 -0.3590 -0.4566
vn 0.7319 -0.3230 0.5999
vn 0.7927 -0.2724 0.5454
vn 0.8359 0.5485 -0.0202
vn 0.6421 0.5193 0.5640
vn 0.9206 0.2257 0.3185
vn 0.3876 0.4652 0.7958
vn 0.2211 0.6861 0.6931
vn 0.0000 -0.9781 0.2080
vn 0.1204 -0.9469 0.2981
vn 0.0000 -0.9400 0.3411
vn -0.1204 -0.9469 0.2981
vn 0.4726 -0.1345 0.8709
vn 0.4873 -0.3601 0.7955
vn 0.5806 -0.3692 0.7257
vn -0.5806 -0.3692 0.7257
vn -0.4873 -0.3601 0.7955
vn -0.4726 -0.1345 0.8709
vn -0.2343 0.4517 0.8608
vn -0.0000 0.3807 0.9247
vn 0.2343 0.4517 0.8608
vn -0.0000 0.1771 0.9842
vn -0.0000 -0.9637 -0.2671
vn -0.1450 -0.9174 -0.3706
vn -0.0000 -0.8587 -0.5125
vn 0.1450 -0.9174 -0.3706
vn 0.0000 -0.0945 -0.9955
vn 0.0000 -0.2652 -0.9642
vn -0.5012 -0.3194 -0.8043
vn 0.5012 -0.3194 -0.8042
vn 0.0918 0.7913 0.6045
vn 0.0000 0.8383 0.5452
vn -0.0918 0.7913 0.6045
vn 0.0000 0.4226 -0.9063
vn 0.5200 0.5674 -0.6385
vn 0.6432 0.5973 -0.4791
vn -0.6432 0.5973 -0.4791
vn -0.5200 0.5674 -0.6385
vn -0.2374 -0.9714 0.0107
vn -0.3347 -0.9258 0.1755
vn -0.4309 -0.8980 0.0888
vn -0.3411 -0.9353 -0.0944
vn -0.9758 -0.1175 0.1843
vn -0.7927 -0.2724 0.5454
vn -0.7319 -0.3231 0.5999
vn -0.8140 -0.3590 -0.4566
vn -0.9232 -0.3147 -0.2205
vn -0.2211 0.6861 0.6931
vn -0.6421 0.5193 0.5640
vn -0.3876 0.4652 0.7958
vn -0.9206 0.2258 0.3185
vn -0.8359 0.5485 -0.0202
usemtl forest
s 1
f 31/1/1 37/2/2 8/3/3 2/4/4
f 45/5/5 51/6/6 38/7/7 30/8/8
f 50/9/9 22/10/10 9/11/11 36/12/12
f 3/13/13 10/14/14 24/15/15 16/16/16
f 17/17/17 23/18/18 52/19/19 44/20/20
f 1/21/21 4/22/22 5/23/23 7/24/24
f 2/4/4 6/25/25 5/23/26 4/22/27
f 3/13/13 7/24/28 5/23/29 6/25/25
f 8/26/3 11/27/30 12/28/31 14/29/32
f 9/11/11 13/30/33 12/28/31 11/27/34
f 10/31/14 14/29/32 12/28/31 13/30/33
f 15/32/35 18/33/36 19/34/37 21/35/38
f 16/16/16 20/36/39 19/34/40 18/33/41
f 17/17/17 21/35/42 19/34/43 20/36/44
f 22/10/10 25/37/45 26/38/46 28/39/47
f 23/40/18 27/41/48 26/38/46 25/37/45
f 24/42/15 28/39/47 26/38/46 27/41/48
f 29/43/49 32/44/50 33/45/51 35/46/52
f 30/8/8 34/47/53 33/45/54 32/44/55
f 31/1/1 35/46/56 33/45/54 34/47/53
f 36/12/12 39/48/57 40/49/58 42/50/59
f 37/51/2 41/52/60 40/49/61 39/48/62
f 38/53/7 42/50/63 40/49/64 41/52/60
f 43/54/65 46/55/66 47/56/67 49/57/68
f 44/20/20 48/58/69 47/56/70 46/55/71
f 45/5/5 49/57/72 47/56/73 48/58/69
f 50/9/9 53/59/74 54/60/75 56/61/76
f 51/62/6 55/63/77 54/60/75 53/59/78
f 52/64/19 56/61/76 54/60/75 55/63/77
f 15/32/35 1/21/21 7/24/24 18/33/36
f 18/33/41 7/24/28 3/13/13 16/16/16
f 2/4/4 8/3/3 14/65/32 6/25/25
f 6/25/25 14/65/32 10/14/14 3/13/13
f 9/11/11 22/10/10 28/39/47 13/30/33
f 13/30/33 28/39/47 24/42/15 10/31/14
f 23/18/18 17/17/17 20/36/44 27/66/48
f 27/66/48 20/36/39 16/16/16 24/15/15
f 43/54/65 15/32/35 21/35/38 46/55/66
f 46/55/71 21/35/42 17/17/17 44/20/20
f 22/10/10 50/9/9 56/61/76 25/37/45
f 25/37/45 56/61/76 52/64/19 23/40/18
f 51/6/6 45/5/5 48/58/69 55/67/77
f 55/67/77 48/58/69 44/20/20 52/19/19
f 29/43/49 43/54/65 49/57/68 32/44/50
f 32/44/55 49/57/72 45/5/5 30/8/8
f 50/9/9 36/12/12 42/50/59 53/59/74
f 53/59/78 42/50/63 38/53/7 51/62/6
f 37/2/2 31/1/1 34/47/53 41/68/60
f 41/68/60 34/47/53 30/8/8 38/7/7
f 1/21/21 29/43/49 35/46/52 4/22/22
f 4/22/27 35/46/56 31/1/1 2/4/4
f 36/12/12 9/11/11 11/27/34 39/48/57
f 39/48/62 11/27/30 8/26/3 37/51/2
f 15/32/35 43/54/65 29/43/49 1/21/21
