# Blender v3.4.1 OBJ File: 'Forest_Nature_Pack_Export.blend'
# www.blender.org
mtllib Rock_6_C_Color1.mtl
o Rock_6_C_Color1
v 0.143748 0.008837 0.143746
v 0.173844 0.870113 0.173840
v -0.143744 0.008837 0.143746
v -0.173835 0.870113 0.173840
v 0.143748 0.008837 -0.143746
v 0.173844 0.870113 -0.173840
v -0.143744 0.008837 -0.143746
v -0.173835 0.870113 -0.173840
v -0.070527 0.000378 0.168221
v 0.070530 0.000378 0.168221
v 0.244232 0.549819 0.244227
v 0.206860 0.781001 0.206855
v 0.086085 0.900878 0.205315
v -0.086076 0.900878 0.205315
v -0.225902 0.181956 0.225906
v -0.175142 0.035553 0.175144
v -0.168221 0.000385 -0.070530
v -0.168221 0.000385 0.070530
v -0.205310 0.900878 0.086081
v -0.205310 0.900877 -0.086081
v -0.225902 0.181956 -0.225906
v -0.175142 0.035553 -0.175144
v 0.070530 0.000378 -0.168221
v -0.070527 0.000378 -0.168221
v -0.086076 0.900878 -0.205315
v 0.086085 0.900877 -0.205315
v 0.225909 0.181956 -0.225906
v 0.175146 0.035553 -0.175144
v 0.168224 0.000385 0.070530
v 0.168224 0.000385 -0.070530
v 0.205319 0.900878 -0.086081
v 0.205319 0.900878 0.086081
v 0.175146 0.035553 0.175144
v 0.225909 0.181956 0.225906
v -0.206851 0.781001 0.206855
v -0.244223 0.549819 0.244227
v -0.206851 0.781001 -0.206855
v -0.244223 0.549819 -0.244227
v 0.206860 0.781001 -0.206855
v 0.244232 0.549819 -0.244227
v 0.114555 0.550104 0.324735
v 0.095352 0.789514 0.274615
v -0.114546 0.550104 0.324735
v -0.095343 0.789514 0.274615
v -0.324730 0.550104 0.114550
v -0.274610 0.789514 0.095348
v -0.324730 0.550104 -0.114550
v -0.274610 0.789514 -0.095348
v -0.114546 0.550104 -0.324735
v -0.095343 0.789514 -0.274615
v 0.114555 0.550104 -0.324735
v 0.095352 0.789514 -0.274615
v 0.324739 0.550104 -0.114550
v 0.274619 0.789514 -0.095348
v 0.324739 0.550104 0.114550
v 0.274619 0.789514 0.095348
v -0.076549 -0.012985 0.076551
v -0.076549 -0.012985 -0.076551
v 0.076553 -0.012985 0.076551
v 0.076553 -0.012985 -0.076551
v -0.094495 0.966705 -0.094499
v -0.094495 0.966705 0.094499
v 0.094504 0.966705 -0.094499
v 0.094504 0.966705 0.094499
v 0.231681 0.030998 -0.080440
v 0.300319 0.181805 -0.105937
v 0.231681 0.030998 0.080440
v 0.300319 0.181805 0.105937
v -0.080438 0.030999 -0.231678
v -0.105933 0.181805 -0.300316
v 0.080442 0.030999 -0.231678
v 0.105940 0.181805 -0.300316
v -0.231677 0.030998 0.080440
v -0.300313 0.181805 0.105937
v -0.231677 0.030998 -0.080440
v -0.300313 0.181805 -0.105937
v 0.080442 0.030999 0.231678
v 0.105940 0.181805 0.300316
v -0.080438 0.030999 0.231678
v -0.105933 0.181805 0.300316
vt 0.055608 0.362919
vt 0.057687 0.381157
vt 0.053917 0.381830
vt 0.051142 0.362942
vt 0.057762 0.421866
vt 0.057762 0.421866
vt 0.053917 0.381830
vt 0.051142 0.362942
vt 0.052496 0.333886
vt 0.052496 0.333886
vt 0.057687 0.381157
vt 0.055608 0.362919
vt 0.059512 0.419439
vt 0.056625 0.333899
vt 0.059512 0.419439
vt 0.075521 0.362942
vt 0.062804 0.362942
vt 0.063874 0.381830
vt 0.074451 0.381830
vt 0.080637 0.381157
vt 0.084400 0.381830
vt 0.087183 0.362942
vt 0.082717 0.362919
vt 0.064382 0.421866
vt 0.073935 0.421866
vt 0.075042 0.333886
vt 0.063283 0.333886
vt 0.081692 0.333899
vt 0.078812 0.419439
vt 0.084400 0.381830
vt 0.087183 0.362942
vt 0.056625 0.333899
vt 0.080637 0.381157
vt 0.074451 0.381830
vt 0.075521 0.362942
vt 0.082717 0.362919
vt 0.080555 0.421866
vt 0.080555 0.421866
vt 0.085829 0.333886
vt 0.085829 0.333886
vt 0.081692 0.333899
vt 0.078812 0.419439
vt 0.063874 0.381830
vt 0.062804 0.362942
vt 0.073411 0.288468
vt 0.073411 0.288468
vt 0.064913 0.288468
vt 0.064913 0.288468
vt 0.073935 0.421866
vt 0.064382 0.421866
vt 0.063283 0.333886
vt 0.075042 0.333886
vt 0.064696 0.290738
vt 0.073628 0.290738
vt 0.078498 0.288323
vt 0.078498 0.288323
vt 0.073075 0.288323
vt 0.065250 0.288323
vt 0.061188 0.288990
vt 0.059827 0.288323
vt 0.073075 0.288323
vt 0.065250 0.288323
vt 0.077137 0.288990
vt 0.059827 0.288323
vt 0.077137 0.288990
vt 0.063919 0.427060
vt 0.063919 0.427060
vt 0.061188 0.288990
vt 0.074406 0.427060
vt 0.074406 0.427060
vt 0.078879 0.291097
vt 0.082021 0.290738
vt 0.078879 0.291097
vt 0.059445 0.291097
vt 0.082021 0.290738
vt 0.064696 0.290738
vt 0.059445 0.291097
vt 0.073628 0.290738
vt 0.056303 0.290738
vt 0.056303 0.290738
vn 0.7051 0.0747 0.7051
vn 0.6634 0.3463 0.6634
vn 0.2500 0.3673 0.8959
vn 0.2759 0.0734 0.9584
vn 0.2259 0.6960 0.6816
vn -0.2259 0.6960 0.6816
vn -0.2500 0.3673 0.8959
vn -0.2759 0.0734 0.9584
vn -0.2675 -0.2499 0.9306
vn 0.2675 -0.2499 0.9306
vn -0.6634 0.3463 0.6634
vn -0.7051 0.0747 0.7051
vn 0.5722 0.5875 0.5722
vn -0.6841 -0.2529 0.6841
vn -0.5722 0.5875 0.5722
vn -0.9584 0.0734 -0.2759
vn -0.9584 0.0734 0.2759
vn -0.8959 0.3673 0.2500
vn -0.8959 0.3673 -0.2500
vn -0.6634 0.3463 -0.6634
vn -0.2500 0.3673 -0.8959
vn -0.2759 0.0734 -0.9584
vn -0.7051 0.0747 -0.7051
vn -0.6816 0.6960 0.2259
vn -0.6816 0.6960 -0.2259
vn -0.9306 -0.2499 -0.2675
vn -0.9306 -0.2499 0.2675
vn -0.6841 -0.2529 -0.6841
vn -0.5722 0.5875 -0.5722
vn 0.2500 0.3673 -0.8959
vn 0.2759 0.0734 -0.9584
vn 0.6841 -0.2529 0.6841
vn 0.6634 0.3463 -0.6634
vn 0.8959 0.3673 -0.2500
vn 0.9584 0.0734 -0.2759
vn 0.7051 0.0747 -0.7051
vn -0.2259 0.6960 -0.6816
vn 0.2259 0.6960 -0.6816
vn 0.2675 -0.2499 -0.9306
vn -0.2675 -0.2499 -0.9306
vn 0.6841 -0.2529 -0.6841
vn 0.5722 0.5875 -0.5722
vn 0.8959 0.3673 0.2500
vn 0.9584 0.0734 0.2759
vn -0.0776 -0.9940 -0.0776
vn 0.0776 -0.9940 -0.0776
vn 0.0776 -0.9940 0.0776
vn -0.0776 -0.9940 0.0776
vn 0.6816 0.6960 -0.2259
vn 0.6816 0.6960 0.2259
vn 0.9306 -0.2499 0.2675
vn 0.9306 -0.2499 -0.2675
vn 0.7070 -0.6790 0.1975
vn 0.7070 -0.6790 -0.1975
vn 0.1040 -0.9471 -0.3038
vn -0.1040 -0.9471 -0.3038
vn -0.3038 -0.9471 -0.1039
vn -0.3038 -0.9471 0.1039
vn -0.2786 -0.9191 0.2785
vn -0.1040 -0.9471 0.3038
vn 0.3038 -0.9471 -0.1039
vn 0.3038 -0.9471 0.1039
vn -0.2786 -0.9191 -0.2785
vn 0.1040 -0.9471 0.3038
vn 0.2786 -0.9191 -0.2785
vn 0.2539 0.9333 0.2539
vn -0.2539 0.9333 0.2539
vn 0.2786 -0.9191 0.2785
vn 0.2539 0.9333 -0.2539
vn -0.2539 0.9333 -0.2539
vn 0.5292 -0.6633 -0.5292
vn -0.1975 -0.6790 -0.7070
vn -0.5292 -0.6633 -0.5292
vn 0.5292 -0.6633 0.5292
vn 0.1975 -0.6790 -0.7070
vn -0.7070 -0.6790 0.1975
vn -0.5292 -0.6633 0.5292
vn -0.7070 -0.6790 -0.1975
vn 0.1975 -0.6790 0.7070
vn -0.1975 -0.6790 0.7070
usemtl forest
s 1
f 11/1/1 12/2/2 42/3/3 41/4/4
f 13/5/5 14/6/6 44/7/7 42/3/3
f 43/8/8 80/9/9 78/10/10 41/4/4
f 43/8/8 44/7/7 35/11/11 36/12/12
f 12/2/2 2/13/13 13/5/5 42/3/3
f 80/9/9 43/8/8 36/12/12 15/14/14
f 44/7/7 14/6/6 4/15/15 35/11/11
f 47/16/16 45/17/17 46/18/18 48/19/19
f 43/8/8 41/4/4 42/3/3 44/7/7
f 37/20/20 50/21/21 49/22/22 38/23/23
f 35/11/11 46/18/18 45/17/17 36/12/12
f 19/24/24 20/25/25 48/19/19 46/18/18
f 47/16/16 76/26/26 74/27/27 45/17/17
f 47/16/16 48/19/19 37/20/20 38/23/23
f 35/11/11 4/15/15 19/24/24 46/18/18
f 76/26/26 47/16/16 38/23/23 21/28/28
f 48/19/19 20/25/25 8/29/29 37/20/20
f 50/21/21 52/30/30 51/31/31 49/22/22
f 34/32/32 11/1/1 41/4/4 78/10/10
f 39/33/33 54/34/34 53/35/35 40/36/36
f 25/37/37 26/38/38 52/30/30 50/21/21
f 51/31/31 72/39/39 70/40/40 49/22/22
f 51/31/31 52/30/30 39/33/33 40/36/36
f 37/20/20 8/29/29 25/37/37 50/21/21
f 72/39/39 51/31/31 40/36/36 27/41/41
f 52/30/30 26/38/38 6/42/42 39/33/33
f 54/34/34 56/43/43 55/44/44 53/35/35
f 15/14/14 36/12/12 45/17/17 74/27/27
f 58/45/45 60/46/46 59/47/47 57/48/48
f 31/49/49 32/50/50 56/43/43 54/34/34
f 55/44/44 68/51/51 66/52/52 53/35/35
f 55/44/44 56/43/43 12/2/2 11/1/1
f 39/33/33 6/42/42 31/49/49 54/34/34
f 68/51/51 55/44/44 11/1/1 34/32/32
f 56/43/43 32/50/50 2/13/13 12/2/2
f 66/52/52 68/51/51 67/53/53 65/54/54
f 21/28/28 38/23/23 49/22/22 70/40/40
f 23/55/55 60/46/46 58/45/45 24/56/56
f 17/57/57 58/45/45 57/48/48 18/58/58
f 3/59/59 18/58/58 57/48/48 9/60/60
f 59/47/47 60/46/46 30/61/61 29/62/62
f 17/57/57 7/63/63 24/56/56 58/45/45
f 9/60/60 57/48/48 59/47/47 10/64/64
f 60/46/46 23/55/55 5/65/65 30/61/61
f 13/5/5 64/66/66 62/67/67 14/6/6
f 10/64/64 59/47/47 29/62/62 1/68/68
f 62/67/67 64/66/66 63/69/69 61/70/70
f 19/24/24 62/67/67 61/70/70 20/25/25
f 8/29/29 20/25/25 61/70/70 25/37/37
f 63/69/69 64/66/66 32/50/50 31/49/49
f 19/24/24 4/15/15 14/6/6 62/67/67
f 25/37/37 61/70/70 63/69/69 26/38/38
f 64/66/66 13/5/5 2/13/13 32/50/50
f 27/41/41 66/52/52 65/54/54 28/71/71
f 26/38/38 63/69/69 31/49/49 6/42/42
f 21/28/28 70/40/40 69/72/72 22/73/73
f 5/65/65 28/71/71 65/54/54 30/61/61
f 67/53/53 68/51/51 34/32/32 33/74/74
f 30/61/61 65/54/54 67/53/53 29/62/62
f 70/40/40 72/39/39 71/75/75 69/72/72
f 29/62/62 67/53/53 33/74/74 1/68/68
f 15/14/14 74/27/27 73/76/76 16/77/77
f 7/63/63 22/73/73 69/72/72 24/56/56
f 71/75/75 72/39/39 27/41/41 28/71/71
f 24/56/56 69/72/72 71/75/75 23/55/55
f 74/27/27 76/26/26 75/78/78 73/76/76
f 23/55/55 71/75/75 28/71/71 5/65/65
f 33/74/74 34/32/32 78/10/10 77/79/79
f 3/59/59 16/77/77 73/76/76 18/58/58
f 75/78/78 76/26/26 21/28/28 22/73/73
f 18/58/58 73/76/76 75/78/78 17/57/57
f 78/10/10 80/9/9 79/80/80 77/79/79
f 17/57/57 75/78/78 22/73/73 7/63/63
f 1/68/68 33/74/74 77/79/79 10/64/64
f 79/80/80 80/9/9 15/14/14 16/77/77
f 10/64/64 77/79/79 79/80/80 9/60/60
f 9/60/60 79/80/80 16/77/77 3/59/59
f 27/41/41 40/36/36 53/35/35 66/52/52
