# Blender v3.4.1 OBJ File: 'Forest_Nature_Pack_Export.blend'
# www.blender.org
mtllib Rock_4_C_Color1.mtl
o Rock_4_C_Color1
v 0.392971 0.000036 -0.000014
v 0.489947 0.111564 -0.084951
v 0.450431 0.102566 0.084922
v 0.464128 0.032317 -0.060074
v 0.487724 0.045272 -0.000014
v 0.505336 0.107065 -0.000014
v 0.437342 0.030452 0.060045
v 0.300477 2.618273 -0.084951
v 0.196039 2.612515 -0.000014
v 0.276243 2.392700 0.084922
v 0.265899 2.663167 -0.060074
v 0.297176 2.567279 -0.000014
v 0.250554 2.499166 0.060045
v 0.323508 2.505486 -0.000014
v 0.000012 0.000029 0.392940
v 0.065191 0.082160 0.470157
v -0.065169 0.082160 0.470157
v 0.046679 0.024386 0.450703
v 0.000011 0.034348 0.487692
v 0.000011 0.080299 0.505304
v -0.046656 0.024386 0.450704
v 0.000013 2.341838 0.196009
v -0.072809 2.122598 0.288330
v 0.072833 2.122598 0.288330
v -0.052375 2.228625 0.258196
v 0.000012 2.163601 0.297145
v 0.000012 2.075927 0.323477
v 0.052400 2.228625 0.258196
v 0.000017 0.000043 -0.392969
v -0.104677 0.131969 -0.470186
v 0.104712 0.131969 -0.470186
v -0.073435 0.038382 -0.450732
v 0.000018 0.056195 -0.487721
v 0.000018 0.133831 -0.505333
v 0.073470 0.038382 -0.450732
v 0.000016 2.883191 -0.196038
v 0.097070 2.888374 -0.288358
v -0.097038 2.888374 -0.288358
v 0.067748 2.933709 -0.258225
v 0.000016 2.970957 -0.297173
v 0.000017 2.935046 -0.323505
v -0.067716 2.933709 -0.258225
v -0.392943 0.000036 -0.000014
v -0.450404 0.102566 0.084923
v -0.489917 0.111564 -0.084951
v -0.437315 0.030452 0.060045
v -0.487696 0.045272 -0.000014
v -0.505308 0.107065 -0.000014
v -0.464099 0.032317 -0.060074
v -0.196010 2.612515 -0.000014
v -0.300448 2.618273 -0.084951
v -0.276216 2.392700 0.084922
v -0.265870 2.663167 -0.060074
v -0.297147 2.567279 -0.000014
v -0.323479 2.505486 -0.000014
v -0.250526 2.499166 0.060045
vt 0.056201 0.329107
vt 0.051801 0.411047
vt 0.041956 0.411047
vt 0.037556 0.329107
vt 0.060311 0.329107
vt 0.055913 0.411047
vt 0.055913 0.411047
vt 0.060311 0.329107
vt 0.051621 0.425176
vt 0.042136 0.425176
vt 0.042136 0.425176
vt 0.051621 0.425176
vt 0.033446 0.329107
vt 0.037844 0.411047
vt 0.037844 0.411047
vt 0.033446 0.329107
vt 0.037556 0.329107
vt 0.041956 0.411047
vt 0.051801 0.411047
vt 0.056201 0.329107
vt 0.037368 0.326169
vt 0.037423 0.327030
vt 0.035078 0.327411
vt 0.034518 0.327030
vt 0.034649 0.329107
vt 0.041956 0.422238
vt 0.042083 0.424315
vt 0.039687 0.423934
vt 0.039051 0.422238
vt 0.039176 0.424315
vt 0.037844 0.422238
vt 0.037368 0.326169
vt 0.034518 0.327030
vt 0.035078 0.327411
vt 0.037423 0.327030
vt 0.034649 0.329107
vt 0.042083 0.424315
vt 0.039687 0.423934
vt 0.039176 0.424315
vt 0.041956 0.422238
vt 0.039051 0.422238
vt 0.037844 0.422238
vt 0.056389 0.326169
vt 0.059239 0.327030
vt 0.058679 0.327411
vt 0.056334 0.327030
vt 0.059108 0.329107
vt 0.051674 0.424315
vt 0.054071 0.423934
vt 0.054581 0.424315
vt 0.051801 0.422238
vt 0.054706 0.422238
vt 0.055913 0.422238
vt 0.056389 0.326169
vt 0.056334 0.327030
vt 0.058679 0.327411
vt 0.059239 0.327030
vt 0.059108 0.329107
vt 0.054581 0.424315
vt 0.054071 0.423934
vt 0.051674 0.424315
vt 0.055913 0.422238
vt 0.054706 0.422238
vt 0.051801 0.422238
vt 0.039051 0.411047
vt 0.039051 0.411047
vt 0.054706 0.411047
vt 0.054706 0.411047
vn 0.5414 -0.1353 -0.8298
vn 0.6971 0.3898 -0.6017
vn 0.9253 0.3018 -0.2295
vn 0.8692 -0.1478 -0.4718
vn -0.8692 -0.1478 -0.4718
vn -0.9253 0.3018 -0.2296
vn -0.6971 0.3898 -0.6017
vn -0.5414 -0.1353 -0.8298
vn -0.1333 0.5855 0.7996
vn -0.0000 0.5305 0.8477
vn 0.1333 0.5855 0.7996
vn -0.0000 0.6751 0.7377
vn 0.7630 -0.1397 0.6311
vn 0.6611 0.1850 0.7272
vn 0.4939 0.1760 0.8515
vn 0.5863 -0.1562 0.7949
vn -0.5863 -0.1562 0.7949
vn -0.4939 0.1760 0.8515
vn -0.6611 0.1850 0.7272
vn -0.7630 -0.1397 0.6311
vn 0.2364 -0.9716 0.0082
vn 0.3400 -0.9353 -0.0981
vn 0.4294 -0.8994 0.0818
vn 0.3342 -0.9269 0.1706
vn 0.9756 -0.1253 0.1805
vn 0.9185 -0.3231 -0.2281
vn 0.8087 -0.3654 -0.4609
vn 0.7319 -0.3324 0.5948
vn 0.7938 -0.2821 0.5388
vn 0.8366 0.5423 0.0772
vn 0.6183 0.4884 0.6158
vn 0.9171 0.2144 0.3361
vn 0.3689 0.4256 0.8263
vn 0.1980 0.6231 0.7567
vn 0.0000 -0.9784 0.2065
vn 0.1204 -0.9474 0.2965
vn 0.0000 -0.9402 0.3405
vn -0.1204 -0.9474 0.2965
vn 0.4694 -0.1426 0.8714
vn 0.4845 -0.3698 0.7928
vn 0.5794 -0.3783 0.7220
vn -0.5794 -0.3783 0.7219
vn -0.4845 -0.3698 0.7928
vn -0.4694 -0.1426 0.8714
vn -0.2219 0.4123 0.8836
vn -0.0000 0.3464 0.9381
vn 0.2219 0.4123 0.8836
vn -0.0000 0.1598 0.9871
vn 0.0000 -0.9638 -0.2665
vn -0.1439 -0.9175 -0.3708
vn -0.0000 -0.8603 -0.5098
vn 0.1439 -0.9175 -0.3708
vn 0.0000 -0.1010 -0.9949
vn 0.0000 -0.2738 -0.9618
vn -0.5001 -0.3260 -0.8023
vn 0.5001 -0.3260 -0.8023
vn 0.0763 0.7153 0.6947
vn 0.0000 0.7553 0.6554
vn -0.0763 0.7153 0.6947
vn 0.0000 0.4689 -0.8833
vn 0.5617 0.5992 -0.5705
vn 0.6732 0.6206 -0.4021
vn -0.6732 0.6206 -0.4021
vn -0.5617 0.5992 -0.5705
vn -0.2364 -0.9716 0.0082
vn -0.3342 -0.9269 0.1706
vn -0.4294 -0.8994 0.0818
vn -0.3400 -0.9353 -0.0981
vn -0.9756 -0.1253 0.1805
vn -0.7938 -0.2821 0.5388
vn -0.7319 -0.3324 0.5948
vn -0.8087 -0.3654 -0.4610
vn -0.9185 -0.3231 -0.2281
vn -0.1980 0.6231 0.7567
vn -0.6183 0.4884 0.6158
vn -0.3689 0.4256 0.8263
vn -0.9171 0.2144 0.3361
vn -0.8366 0.5423 0.0772
usemtl forest
s 1
f 31/1/1 37/2/2 8/3/3 2/4/4
f 45/5/5 51/6/6 38/7/7 30/8/8
f 50/9/9 22/10/10 9/11/11 36/12/12
f 3/13/13 10/14/14 24/15/15 16/16/16
f 17/17/17 23/18/18 52/19/19 44/20/20
f 1/21/21 4/22/22 5/23/23 7/24/24
f 2/4/4 6/25/25 5/23/26 4/22/27
f 3/13/13 7/24/28 5/23/29 6/25/25
f 8/26/3 11/27/30 12/28/31 14/29/32
f 9/11/11 13/30/33 12/28/31 11/27/34
f 10/31/14 14/29/32 12/28/31 13/30/33
f 15/32/35 18/33/36 19/34/37 21/35/38
f 16/16/16 20/36/39 19/34/40 18/33/41
f 17/17/17 21/35/42 19/34/43 20/36/44
f 22/10/10 25/37/45 26/38/46 28/39/47
f 23/40/18 27/41/48 26/38/46 25/37/45
f 24/42/15 28/39/47 26/38/46 27/41/48
f 29/43/49 32/44/50 33/45/51 35/46/52
f 30/8/8 34/47/53 33/45/54 32/44/55
f 31/1/1 35/46/56 33/45/54 34/47/53
f 36/12/12 39/48/57 40/49/58 42/50/59
f 37/51/2 41/52/60 40/49/61 39/48/62
f 38/53/7 42/50/63 40/49/64 41/52/60
f 43/54/65 46/55/66 47/56/67 49/57/68
f 44/20/20 48/58/69 47/56/70 46/55/71
f 45/5/5 49/57/72 47/56/73 48/58/69
f 50/9/9 53/59/74 54/60/75 56/61/76
f 51/62/6 55/63/77 54/60/75 53/59/78
f 52/64/19 56/61/76 54/60/75 55/63/77
f 15/32/35 1/21/21 7/24/24 18/33/36
f 18/33/41 7/24/28 3/13/13 16/16/16
f 2/4/4 8/3/3 14/65/32 6/25/25
f 6/25/25 14/65/32 10/14/14 3/13/13
f 9/11/11 22/10/10 28/39/47 13/30/33
f 13/30/33 28/39/47 24/42/15 10/31/14
f 23/18/18 17/17/17 20/36/44 27/66/48
f 27/66/48 20/36/39 16/16/16 24/15/15
f 43/54/65 15/32/35 21/35/38 46/55/66
f 46/55/71 21/35/42 17/17/17 44/20/20
f 22/10/10 50/9/9 56/61/76 25/37/45
f 25/37/45 56/61/76 52/64/19 23/40/18
f 51/6/6 45/5/5 48/58/69 55/67/77
f 55/67/77 48/58/69 44/20/20 52/19/19
f 29/43/49 43/54/65 49/57/68 32/44/50
f 32/44/55 49/57/72 45/5/5 30/8/8
f 50/9/9 36/12/12 42/50/59 53/59/74
f 53/59/78 42/50/63 38/53/7 51/62/6
f 37/2/2 31/1/1 34/47/53 41/68/60
f 41/68/60 34/47/53 30/8/8 38/7/7
f 1/21/21 29/43/49 35/46/52 4/22/22
f 4/22/27 35/46/56 31/1/1 2/4/4
f 36/12/12 9/11/11 11/27/34 39/48/57
f 39/48/62 11/27/30 8/26/3 37/51/2
f 15/32/35 43/54/65 29/43/49 1/21/21
