# Blender v3.4.1 OBJ File: 'Forest_Nature_Pack_Export.blend'
# www.blender.org
mtllib Rock_4_B_Color1.mtl
o Rock_4_B_Color1
v 0.206008 0.000018 -0.000007
v 0.246544 0.044383 -0.033961
v 0.229567 0.041327 0.033947
v 0.151162 1.754551 -0.033961
v 0.110149 1.736977 -0.000007
v 0.140753 1.633729 0.033947
v 0.000005 0.000014 0.205993
v 0.025471 0.032141 0.238040
v -0.025461 0.032141 0.238040
v 0.000006 1.536060 0.110134
v -0.028744 1.434467 0.145943
v 0.028756 1.434467 0.145943
v 0.000008 0.000021 -0.206006
v -0.042434 0.053569 -0.238054
v 0.042452 0.053569 -0.238054
v 0.000008 1.937894 -0.110148
v 0.039167 1.953813 -0.145957
v -0.039151 1.953813 -0.145957
v -0.205994 0.000018 -0.000007
v -0.229553 0.041327 0.033947
v -0.246530 0.044383 -0.033961
v -0.110135 1.736977 -0.000007
v -0.151148 1.754551 -0.033961
v -0.140740 1.633729 0.033947
vt 0.051817 0.330286
vt 0.049589 0.399067
vt 0.044168 0.399067
vt 0.041941 0.330286
vt 0.053462 0.330286
vt 0.051232 0.399067
vt 0.051232 0.399067
vt 0.053462 0.330286
vt 0.049544 0.411433
vt 0.044214 0.411433
vt 0.044214 0.411433
vt 0.049544 0.411433
vt 0.040296 0.330286
vt 0.042525 0.399067
vt 0.042525 0.399067
vt 0.040296 0.330286
vt 0.041941 0.330286
vt 0.044168 0.399067
vt 0.049589 0.399067
vt 0.051817 0.330286
vt 0.041893 0.329110
vt 0.044168 0.410257
vt 0.042525 0.410257
vt 0.041893 0.329110
vt 0.044168 0.410257
vt 0.042525 0.410257
vt 0.051864 0.329110
vt 0.049589 0.410257
vt 0.051232 0.410257
vt 0.051864 0.329110
vt 0.051232 0.410257
vt 0.049589 0.410257
vn 0.7188 0.0374 -0.6942
vn -0.7188 0.0374 -0.6942
vn -0.2576 0.4825 0.8372
vn -0.0000 0.3931 0.9195
vn 0.2576 0.4825 0.8372
vn -0.0000 0.7111 0.7031
vn 0.8151 -0.3351 0.4726
vn 0.7022 0.2278 0.6746
vn 0.3361 0.1615 0.9279
vn 0.3632 0.0583 0.9299
vn -0.3632 0.0583 0.9299
vn -0.3361 0.1615 0.9279
vn -0.7022 0.2278 0.6746
vn -0.8151 -0.3351 0.4726
vn 0.4663 -0.8845 0.0132
vn 0.8851 -0.4613 -0.0621
vn 0.4077 0.5349 0.7400
vn -0.0000 -0.9023 0.4312
vn 0.2937 -0.7541 0.5875
vn -0.2937 -0.7541 0.5875
vn 0.0000 -0.8692 -0.4944
vn -0.2117 -0.4422 -0.8716
vn 0.2117 -0.4422 -0.8716
vn 0.2436 0.7424 0.6241
vn -0.2436 0.7424 0.6241
vn -0.4663 -0.8845 0.0132
vn -0.8851 -0.4613 -0.0621
vn -0.4077 0.5350 0.7400
vn 0.9682 0.0540 0.2445
vn -0.9682 0.0540 0.2445
vn -0.0000 0.0484 -0.9988
usemtl forest
s 1
f 15/1/1 17/2/1 4/3/1 2/4/1
f 21/5/2 23/6/2 18/7/2 14/8/2
f 22/9/3 10/10/4 5/11/5 16/12/6
f 3/13/7 6/14/8 12/15/9 8/16/10
f 9/17/11 11/18/12 24/19/13 20/20/14
f 1/21/15 2/4/16 3/13/7
f 4/22/17 5/11/5 6/23/8
f 7/24/18 8/16/19 9/17/20
f 10/10/4 11/25/12 12/26/9
f 13/27/21 14/8/22 15/1/23
f 16/12/6 17/28/24 18/29/25
f 19/30/26 20/20/14 21/5/27
f 22/9/3 23/31/28 24/32/13
f 7/24/18 1/21/15 3/13/7 8/16/19
f 2/4/16 4/3/29 6/14/8 3/13/7
f 5/11/5 10/10/4 12/26/9 6/23/8
f 11/18/12 9/17/11 8/16/10 12/15/9
f 19/30/26 7/24/18 9/17/20 20/20/14
f 10/10/4 22/9/3 24/32/13 11/25/12
f 23/6/30 21/5/27 20/20/14 24/19/13
f 13/27/21 19/30/26 21/5/27 14/8/22
f 22/9/3 16/12/6 18/29/25 23/31/28
f 17/2/31 15/1/23 14/8/22 18/7/31
f 1/21/15 13/27/21 15/1/23 2/4/16
f 16/12/6 5/11/5 4/22/17 17/28/24
f 7/24/18 19/30/26 13/27/21 1/21/15
